<mxfile host="65bd71144e">
    <diagram id="Wiz7R5XKC114ul48xvh0" name="Page-1">
        <mxGraphModel dx="987" dy="1011" grid="1" gridSize="10" guides="1" tooltips="1" connect="1" arrows="1" fold="1" page="1" pageScale="1" pageWidth="850" pageHeight="1100" background="none" math="0" shadow="0">
            <root>
                <mxCell id="0"/>
                <mxCell id="1" parent="0"/>
                <mxCell id="13" value="" style="shape=stencil(lVbZctswDPwavWJIghee0+Q/MhOn1sS1M47T4+8LVZUiQtJm8kZRC5JYLI6O796Oj6+HLri32/XycvjVP92OHX/rQujPx8O1v+mq4/uO754v18P36+X9/DR+vz4OyGH14/JzOOH3aCdCyQ9Wwf0ZdxJJ+LfxMOJP/XmBr5UkNvjAFOq+QREKrQEnSmnfIBeq7Yui7pR9g5Qo1sYgO3Ju3yB6yu0Nhac7Nw3URXaNgdJQkdOUQ4NXmn0GPhOzxRfAUaSaG7x32GV1oNgLEKeB3MoBBnhHYhyolCDeiEIKJUZ41wZAlDIQAD0/tfhEAZ4vLaESKQA+lR9zPlOE/EfDZyABiovT3wW+CBRQse9xQEAq0NX7M8DXlaAjTOJZ7gv+M+B/VSQ0vhXwqeln9FYmBe74K22JUH1WyOd/thf6TwCfiLPFC0h4tgk84AGfgWJcvQfo36/0X6cbd/Rv9VkgP25VH5QxmO/e6Fn1AOLrKBs9q95AW/JbegZ6+DI+T9fPHYBhB+BoMyDL1ES2M75MApgbcYIlJc0VfO6TWmVQziuprajZUwRB1tad2yzzAqtWFZs2qluAF5Vd64LHVcUTt+c7qggfKDmD5wjwTCUaPKqiKmLHFg9CNjQt+x4PAqBJaPhxUx3exlc7Cfmprm7jtey2ItW+hvGlGryArF9MJbPkYFkUsX0vfob/0vT6OV4XH6Pyc386jZP28r8drXVrHMv5/i8=);lineShape=1;" vertex="1" parent="1">
                    <mxGeometry x="121.78635437268406" y="243.85027501702348" width="28.974466992960014" height="37.188302257165894" as="geometry"/>
                </mxCell>
                <mxCell id="14" value="" style="shape=stencil(lVfLbhsxDPyavRIS9eQ5Tf8jQJzaqBsHjvv6+3K7kG3S3glyW3s1ojgcDrVTenjfPr1tJg7vp+Ph++b37vm0ndKXiXn3ut0cdyd9mtLjlB5eDsfNt+Ph5+vz8vvtaV45P/04/Jp3+LPgOnGbQRz+Ln8E6un/H1+X5fvd69Xy+XU062OkIADQqTlAJSnrgFTHfgPATBLWATkRBwsQqhkAhHoxAI0ZeR1QqicpM4xQKyV7pJKo9XVASxRshBqpNgAQypal2qgBWrseiQ2gMQRIpm6P1BpVUAfRujqAEAMtSaeaDKBH6oBWkcHJGVAoghxiCBRsIXqnDkqtIYoNIUy5wiSyTUIKVdAQSlOzR9ItItCGFqJUC1AeUOV40H4FECCmrq9vIqCm7o3Eqk8axQjVV6z6NCsGpdbCOtuQQA3lUG7E1CiAws0NYSP0NA65lnS1LPVABTSE0lqsz7Q+mvB+4eIwiauWYwTIg/UrQAJ1kJuk9UgF0DprM/ukO1KrGlPwtArqBxWfTVqJLjhCdw0Uhz+v5dBtBOWtoghKomugRhl1XPF+r4dklLT6vZuKF6u6jwg3tiFQrp8GaGHZNXWCYtIBkp0dVzwWs+9RlaugwasTwtJUPxztbkLoFhlfHpzflzic5/71RI3OukDOwz3vA7RfLCCpC6AbU/INkRh6pV6oXB24QvtOI/5ZfA2OLKbo1leopOgvZFEpAheBQNkmHBPsheAvS/HM8dp6Z0lDhyvL2RZM+QX0B3+bzFBxKi/bAwyHOfvdIzQWHQh29wC1VvxYxiZURxkvy9H165PfFh8u14fLZ8zLbr9fvoKu3/vPHv1r+WRKj/8A);lineShape=1;" vertex="1" parent="1">
                    <mxGeometry x="121.99255234922316" y="275.9229513011428" width="37.64408607208667" height="23.727930507137852" as="geometry"/>
                </mxCell>
                <mxCell id="21" value="" style="shape=stencil(nVjLbhsxDPwaXwlJlETxnKb/ESBObTS1Ayfp4+/LraH1ihuPkd42CsciOUOK0obvXncPL9tNCq9vp+P37a/949tuw182Ke0Pu+1p/2ZfG77f8N3T8bT9djq+Hx7Pf788TJbT14/jz+kXfp9xMVGLEyqFP/NK4H8rX8+A5/1hBJQwAFIkFQDIVPIAYKHcAKB6l3KjigBK0gZADST5OiAxcRoAwhQCADTiMYaWKYEscaE67qCWVhBDMY9lBDBlkNZiQdfRJSFJ1wESKI5ZEqFWAUAp6pjWQkmvA1qlNEqjRMoRAJQye2kk4FJrFEYeUqEIiGuR2uhSNGZADJIolpEHiiAEU5rboBIDnrN2ZV7scwFCUqqOZkpI2tLDmwOOPcnXqs0FbOWEOLB6dh6l0Hm/1jGqeEADMcRAPMZgLQaRYKoQb4/KuZBm71AB9lbryaeogtrkrsnZ3hoYai8kzl5g3VizcpRVyECm6PwvfeVKfnzRWAaAqIXUnSFMAkRtBCf2gAoCng6d5AEN7WCHDvsQUDu1DIbqc8SgURhAVyQUFIN0DS9YFlyZxQEaKSq08oFOFfBsSeRVZVZU+1aH60oDaW3UeGUPlFS7DBYOCVS28Cpi8Pt2pq4qE9mnruMFZw2QnLoqF6JAlc+rbl0oAwI+a2/pru5IpojmFmskTnNU8NjiWnWAndcmCN8q+on+sX5Cr9qL/2gU1OjtTeMKCNPmR5BJU6hmwhzhYmhpoFNo9eNpMZmALWwsam5GEGI05VjVjrKzFQEuVe0z/mI8jQBQsteFKuzY3HoWZyIClsY0ODmfMm5GrSdljtqKAbXsRDruYGM/GkTUn5s1wg1KT/p8cVFiNNxRGJNqSlJgH3zAN65eK6XeuNsFP/Bbv0e3nLDqvgHf7Hx3V1gHaXUlglNI7p3tMimjyrdG4s3h9cnfnrB58zMvdsYS5y42ONaJmPCJVE7Eu754g6rkL7A3tPA/Dwm3APZxebd42j8/n589lv/37xy2dH4j4fu/);lineShape=1;" vertex="1" parent="1">
                    <mxGeometry x="181.1874957486225" y="237.31514808530164" width="26.660684726381845" height="51.20420062775925" as="geometry"/>
                </mxCell>
                <mxCell id="22" value="" style="shape=stencil(7VjLTiNBDPyaXK12v/vMsv+BRFiiZQkK7Ovv16Ohh7F7phDHlbiFMJX2o6rsnkO4er6/eToevHt+uZy/H3+fbl/uD+HLwfvT4/3xcnqRT4dwfQhXd+fL8dvl/PPxdv776WZ6cvr04/xr+oU/M84ncm1Cefd3/oY9xfmbrzPg4fS4BgTKrADyEy0CQKSkASFT8wCQKWpAbBQCADRqQQGy5ABCCpG8U4CSMKARa0DNFHgfEBP5qAAtEKd9QHJUdQ4tUUAAJs4akMlneELRnW6l/8R2Do2KOaGSA42LldhbQCmwSq1ogHQaAUJv0wpQAFujo6xzYOfIOdDqQtXZIxo4IoiCxphAEsFT8kPWiH2OQhvqigRRN1rdQEi+bHED8FtCMhptjhLKgSnrpKvrhd6rUtSAXCC/p7LqkJLvndkDlMGYPLaNqsnkPQ6p2sYxQ1ELv5sJiSpQXGZy+nlMbmlS1BlkqGjh2atpraZDAhmv1LUgGlVAPXEtp48QMnpA7ir/1oAQoAcUGUDaWsXOA6hSdhYQl6G3xySnuSre6UGfWYihAUK9jAQaKFUNEO8EjZCZ6AdABWWdyD2E5JHvNcq602Kdr2fukduQSfRR0DwRZ9XjQewcjWkBsE46ikDfmSdaDzHiEefsuiRnJmRjydpYzJQANaZlRo+TWMiBssp+5cMAAGwV8tVmQ0JTl+NQJVlv0AlMcRQQtI2hrEwVJC0AQ76pM0hxfnBW0SA6IdvtR+jt0NBlKobemRgtxqVXfS1RZDOhB7A6waFNQ+x7ADTAVpGLBdS+Km8DIuXBWyuacMtWu+o0cr440nsR7TaAbVknHwEhTX0d9ADH+kcBXLoLraoEN41KcXDvgm4DtU+DZYq2rsHtoei6uS8ARwz6ICcYxYmkkC+laPUg21ICIaVgb2XTBAJ6SMFurXIpQmuuhGR2+1zgfEip34WXrZX7TfDzGvd5jfND1v/XNU7WymZyiPAEWebNhjWt44BMsjsEDSgZ0rVZxWWZekgP9s3MG9+3U7ZtFqYw4IWz00ROrKDL4/3H97bvPB/N8wyNm+0tlx101dDdZOkwFRB+6svp2+PI76q9i1W857G1+AoXemGP9/Z5PGjZxlNA+NPd1Nl0EXkG9jS4sUn1ix4H0+IK5CLLvDFrKRlq78ff374PkA9vr4vvTg8P89vm9f/t62X5an41Ha7/AQ==);lineShape=1;" vertex="1" parent="1">
                    <mxGeometry x="219.59619574824637" y="261.01608196852044" width="14.308810816645579" height="44.65793907052282" as="geometry"/>
                </mxCell>
                <mxCell id="23" value="" style="shape=stencil(lVfLctswDPwaXzEkQILkOU3/IzNxGk9dO+Okr78vVA8VEbI2k5uicE08dhfQTu5enx9e9jsOr2+X8/f978Pj2/NOvuyYD6fn/eXwZk87ud/J3dP5sv92Of88PV7/fnmYTk5PP86/pl/4c8UlYp1AHP5eX+RKof5/8/V6/ng4Lc4zE6cBkCpJ2QZIoVoHgL1R2QYkJQkDgBs1EFJOJDwCIhXdBmgklgHQSMB5uyC7iBIpyDkJaR6LJCQRACLlMQW7MyIA+xQ0UQUh5djb2gGlwZBUe1uXgLQNKJXqyAwtVHgbUC2ksUqaKSJAojCGpEIMmFELZQdgSiDpZsyIHpAbABg1qg+pohsKySrpBsraGvFIDa1U8jYghkBhpGuJ1ADCrlAHyMQBAKpvhDU/Ava1THm0mRooo5C4c20GMPSlOhdlAVCQQzWu6eoGkEOdi7jMARiZ6SXlVZWQggo18X1AZTVAHqs0dRqwzwIQZxtWNwCwFL0gMrzBitiaF0QBCqorn/lIckbvlUahqIVy9CEJord6N56MCWm0dqNbWh9WXHUCClTBCJoAI1uLDQhAvikkp+nSJ/cnAIjewSdtP6Eg6WzzY/TKhVVtrQJl7FzDI0UyhVEQxhbEPlZSV9cGb7D9x5mrcQMNXttFkhvtAU6IabcYNSpKAeQg0buxBVlQWYMHxNg1dbtzq1ZzT+o2NdjPXdzn981iDkigBxj5m0tZ+o52e5sxLo+2JHOMt1Mu3sdsR0MeYGuwo15qcGJZ29SZRuwCuT3YEyU3HhiO6Tj74gwQiggQ+u8tABk12o9EO59QValUn0FDeu5KWc434Encx+XCVjNoWvDx67zEbpz301Bh/KtNzLb0BhoQvA5stKHz0ffLKBSQe/WFZfaiBin32a/Dj8/bw/un6NPheLx+yS7/7z9d7dX1s1fu/wE=);lineShape=1;" vertex="1" parent="1">
                    <mxGeometry x="246.16248590904547" y="256.45871637361324" width="23.28543789652318" height="25.865039870784226" as="geometry"/>
                </mxCell>
                <mxCell id="24" value="" style="shape=stencil(hVfLbhsxDPwaXwlJ1IM8p+l/BIjTGHXjwEn6+Ptya0ix2N3xbe3lLClyZiTt+O7t+eF1v0vh7f18+r7/dXh8f97xl11Kh5fn/fnwbk87vt/x3dPpvP92Pn28PF5+vz4skcvTj9PP5Qu/L7hYKNYFlcKfyz+Fsvz74+sl/nh4uYpPiUKa4hNTigDQSGdAHp9YBXChUOaKGoWwDciRWpsA3CjmbUCJVPMEiJaBAUBJ5pKUuGzHt0AapnghqdvxEigmXxCDpkqh5qYgvcR1gPol50AMeqSJZM5gXVMEsJJmIlWm2gBAe09Gk2zygHoLQGeAUgJMUvFjUKYIuqSDaANQKaM1ZOKZepZTAJM09rkOgJKCDCKeGgZoCqkRsy8pIUCiOrfVRlnBpCV6CzCyRDAHozc7OQictAHqnEGYFAnIuMkzwCSFFp0pziW1BqkhlXQeXLNGI7YGb2MtYy4NH73OAHzPuBmyX0MArrEQYVZcM/KBLhnVKvs5NEDvGIJXkDQSZBvabWiQKXaZb2nUWZ/RNQNu2GsvOdMUGkQintu0SA4JQvv3hn1/9mGLTUF9TQoaa33P8yRs+jdEmp0zcfeqLc25DLasjBSxCgCDMHYmx9dIBUjIXtd5DWXkXAXU2rflcRKwDOgkYGSauZGFGFhZSf+VZBICa8jVZ6jaCbx+/BEqzgYqFTC4FPuOMzIILClmv6VkpYLclVjmriZYUegHhSGH0o1nI97xIqZuthvxzmOi0QLGp7lB7cbnndMXKkAHqXvu6A60ee6iGsWTAKco3lrG1rguGb/pBLgjSLf/q3BQjPVZxMUX4NU2x+om1Q+JW8wM1fcSrHb18oLquXnZsYfPm9LT4Xi8XLSu3/ublf11uZXx/V8=);lineShape=1;" vertex="1" parent="1">
                    <mxGeometry x="264.38126032309106" y="258.56959347662314" width="27.862067023974138" height="21.477887130363822" as="geometry"/>
                </mxCell>
                <mxCell id="25" value="" style="shape=stencil(lVfLctswDPwaXTEkQYDkOU3/IzNxak9dO+O4r78vVI1UE5I3zU2WuSIeu0tw4Ie3/dPrbkjh7Xo5f939PDxf9wN/GlI6nPa7y+FqTwM/Dvzwcr7svlzO30/P0+/Xp3Hl+PTt/GP8wq8JlzJlHVEp/J7eZCbJf998ngDHw+kGwJlS6AAsEJATce4AKVHl+4BUKdR+h0axAgAT9yFJoApCStEnrUzjT7CD9DuUTDGAKi01mQHVko73AZIoSr9DowRy0Ey1+pByuQ8oTNrvoEIKADVQ4b6sOGlLUfukJVIDna5CnHzjGIVUV2xtJIAaLVIRD1BQ1mZlFR+SKAAUyi6HRAkk3ZoXkODGxRAoOEShgGJqVFwj7A3gd7O69gA1PoKYmlJyZDJuoJBMo82zL6POBS8IA7QGuKFUVzsoYh9Tyz6HLAAQSYOvkmAFxV5BGqCTmea1F7V1Gpmr7eCtL1MDnbYcWvR0FVTWTNxLbjRX4GS1EPc5mOQKKKt1WteiRgpiqquQ3mHr2pgUOJnpobgqMfRKU5y3DYWdNoAjn1R4ZllIrS+rxllSdwHtI4Bq5OsBRecybLM1+z5YKwOokqXYeq+0zjCeHVK/w40Zbp/U4o3J6oAOrRi9gsYk0CzgJVoKXL8yb12mj+2AqJVeDQLXF68eDnMJtr+vXp/2pqFpqcxGvWRACVA7W369eHDLROZBZwnovcmnuRbPJdteL369BVRBAro44k1JEU3NpJ3PjxMr4nXzg08u8IC272Xn8zKPc9uAsgIoPBhsYg097yyrAsrKy9l342AoaStiYA+ASiu+D7JkdU/8jnmC/cXmenWADKlh6k8uJKYIPNK4LC7pCKtkgPXxGVBIcT43brgUADXG61efgzkMOj4/fEf8D4A9/LuSvhyOx+lGe/u/v8Laq+n6y49/AA==);lineShape=1;" vertex="1" parent="1">
                    <mxGeometry x="297.1931014143945" y="254.17961854232612" width="21.812158829814294" height="26.92631321748506" as="geometry"/>
                </mxCell>
                <mxCell id="26" value="" style="shape=stencil(lVfLctswDPwaXTEkwRfOafofmYlTe+raGcdtk78vVA1dE7TWzU2WuQLBXSzAiR/etk+vmym4t/Pp+H3ze/d83k78ZQphd9huTruzPk38OPHDy/G0+XY6/jw8L79fn+aV89OP46/5C+8LrmTKdUYF97G8CVTK3xdfl/X73eF6vZD33XrPlHgdUCNx6gNUig4AKknpACzEdR0gTNJHSJ58BoBiATlQAhG8c+RchyihndtaiNwDqqMAshZHmXtAoiKAiEIh9oBKxa8DskYQC8hpHRDjsKXc3twEqHRC7gERaoO58XQBCDylqDvu1TefW1gHJLFUa4QIjjVHqvyZLWWhMuSA9F0ihWBzcEBLynTpmRbVN65Rk7SoviMouUF8EsmBCtIIpZe3JEpoS8VKQzIJUGvh9r0LQKsW5KA8OCONSgnIW5l2yQIyyEG1FNgCGOSQEjm2OUTAtPqWeHtKAQEc+b6mlbgKTkkBNmnGOXhKhmmPI8Sm/it5J1BxSdvBUHEZlai6RrWAgKRRyQ8mgI5Vzb0GC6hIrXmoB3evjXKfg5Yoqrh6OcQr4pC86yiNhG2mDvLO0CrVyMQYmXY9wEMZc8CjgAJMF70DiMX2h6vWfbtnJZJsQ2S0J6rF8oCIGyYH7esV9EQ/ePFMDAgQnRWrAhgVnE5kw2zCyO3dMGowHLCqJ9cDVO8RlMM8J/QsaAkKEGsNNofZFcAgoA1I+oJTZ0M86AaM8elBO2RLhXxPXJDm/2sDWe2T9rGd223iStvAZTLG3l3seIXHXF1f+5R9E/uac5tJ3TcLWZ1A+++7Zpu31wfrF66x/p+zmzIG9j8zZr+PvEJHjBTNeo+6gqdi94MKU2eebNdDiSbb1zz+fraNM7RpYG395+6Gd9frw7+L6Mtuv1/usdf/24urvlouvfz4Bw==);lineShape=1;" vertex="1" parent="1">
                    <mxGeometry x="326.88180603286014" y="223.4357501277799" width="17.826608971806646" height="57.6773557827036" as="geometry"/>
                </mxCell>
                <mxCell id="27" value="" style="shape=stencil(7VjLbhsxDPwaXwmJep/T9j8CxGmMpnHgpK+/72wdbVbc9QQFip5ys3c1S5EckiPtwtXT3fXjfqfu6fl0/LL/cbh5vtuFDzvVw8Pd/nR4xq9d+LgLV7fH0/7z6fjt4eb8//F6Wjn9+nr8Pn3h5xnnVXKcUOp+nZ/gQfrz4NN5/f3hYbm+SHLj+igaLwPwPW0DIEZpjQCSxBGQitRKAE1cGQDFi4bLgKBSdQDUIJH4EFKPSQc0lUaiFKqU0YeW3wKYLTUEmkQJgGQAVVQJoEjzFlAdBThjofVUXoqStdAkFwKIlnsAvHxiGxAsl7xz4pgTXlpYmWCpdpJXgELiCvYZugIQiNeKzGWbiEZ8UNC/WUAg/AYgmbgWKSyublUQvORQQXG0UAqvoChlrKAcpbItwYexqJOXRCooevEj+6YiJGGNWXTckuYe6E1A0h6TmX1VMqFG9v31DAjU6RJ6vcwAlUK4VOdWOgOyeOJDC+JHeqM/O7IlUM2PWwLhPaHGoiLnRGRKpjbnaTEhWP9uK68TqpZ4XVvvpYuREljm0PtGfk90zQQQbdvISTxhX9YexYWFRiyk1gfIAhAJN1JdWQC9mAU4bSxo92obkC1dwfjIKqj0mMwAJ4EUNXxQ0wUabX34nhudxicSaUxwMQQLcDzTxVgodLSDS361JSUllzFmV4BK2FrQvpONEuv30Ecl2jwUkjgAjAVkmjkNgGkbIB8Na+uNbkFv1pgQViOxpsywikt2ZuEJ3RI0Xl0BWKadlYlTW+AlWryNEm0CaFvGB6ViGiVqLSCVbEu5v15Sg5BvEudjTYN87ASB13GcilMYyJawYyNnXlvbvwGULNE0gdjlx/ZA8XY+RO4DBnUauRQDt5BXU7TQRgYLebQA7esZAD6MBYSTFxOuRe18gP5RVg/avzdbcHw+ZKvhJu1LfIAm1DEPAfOBib7S1f+caa5/YrLUQBNQZiFY8kEaFyZcV1q6Qt4z8f1+uHwBvHW4TBbwfrj8/4dLXV+ehH7uv3RjlEcf0Ns8u5Oq1sKkV9gZZXUanVQi8cGveiX6QiZhTfZIo5HuaH1moklwvWctLu3I9iGyDbNpJaxO0r4L0u182SOl6+pyuwgkOrOcuRr7AHhd7tjsl5DtcpKnYo/0rid6++Qpwdu9M2I6e4mB0BB5B5oZleC7we31ak8KXJX/9WXvm+vx4/Vm+fZwf3++mF6+tzfReHS+xQ4ffwM=);lineShape=1;" vertex="1" parent="1">
                    <mxGeometry x="366.9165397507727" y="212.86762832505121" width="27.25141458481774" height="57.973678301983504" as="geometry"/>
                </mxCell>
                <mxCell id="28" value="" style="shape=stencil(rVfZbttADPwavRK75J7PafofAeLUQl07cNzr70tVkGpS1QQF+iZbO9rh7PDYQR7ejk+vh4HD2+16+Xz4Pj7fjoN8GJjH8/FwHW/6NMjjIA8vl+vh0/Xy9fw8/359mlZOT18u36Yv/JhxEonjhOLwc/6nJAr8+5+PM+A0nu8BQiUZQBWqeR+QhSRbQCaWfYAS6BtKGexQGkU2gKSfSAAQqDYD4EwNBJ0iNbGAQglQUlmToxRIwA7cKFhKSSgBlVgWTVZAphL2AbGRBAsoGMDUNwABlCq17o+hRSDS8nZdz4sZ/06Igv2+NGoggEDB8he1BeAfqFS7XneE/IPlrwogU5SF7bo+UQGeiJGKcx1Dm8ZCvXsAg0TQ18IegDJHIwzVx9AAQDTVkhcJlQtZCdydghRYkJJNBNH60uEOruRJp4hSrZNYSmrUBHbQahKLz80AnKrWi5tUSygV1DnNAzJQqVNqnhHyqvJ1IQvFhnKzbeodilgDdrlWoFMDsTtkhofMFOwJaIHN9T+uz1TtieGmpo4Ra7qw7LjXolzXxHrW6qu7EgQGap2qLRXxHQNViu4EAkyCGDb1Vz0agaZdJbcmLZEqqHddRbUuqoUq6lCdsqWkOqAWpQS69YXqkAFAz9mNFnc67DmJLaLrSYBU0LbgtmiNGE0vPgY1S0IjHkU3f1X4ffZdR+c1dGziU6fwIsFOLYrOFqoonEOcK3JbyuuOU/38mHUyQtVXltqzAnT2AtVUc8uNFgpgkG1Ttm92SEAjFdX1KI0BiarTCLug6zJu7E2oLjuzNhXc+nmTzmje+fe7yPsAffhz9XkZT6f55nT/3l+V9K/5miWPvwA=);lineShape=1;" vertex="1" parent="1">
                    <mxGeometry x="396.65938940624983" y="248.15017571461635" width="16.181509120365263" height="22.20629549652789" as="geometry"/>
                </mxCell>
                <mxCell id="29" value="" style="shape=stencil(lVfLctswDPwaXTEgQRLkOU3/IzNxak/dOOO4r78vVA9VEbZ2mptEcUU8dgFwkof3/dPbbor8fjmfvu5+Hp4v+0k+TTEeXve78+FiT5M8TvLwcjrvvpxP31+fr+9vT/PO+enb6cf8h19XXC3UdEZF/n1dCYVE/q58vgKOh9cVIDfKYQQ0krINSEwxD4CYqIITUqE6miRKKW0DihKPgCw0v24BVKnVAVACVXBCE2o8ALRSZAjQMUq1UqrbgBr65w5olpkAnDaL45gHZmJgU1RvU7OVvA1Yfrf4kCmB/eLTUBqlBvYrhTTmLVEAeUtCuY2ASBW4nJmyekAGZM1KMpLVqJTACWVh2gLIFDFZvUlKFUTJgtjEk5UBlZRv8pAoAafNpFZGgFJBJkkX8CIHpgQSl2vP6wKIJMCHbHIYuapCAsKaUjdgBYigyhj5avEmMThBYi9CK3o3pLdKGn1YGZhkAmVXlqyMAJNmRY8KLUyiwAfTg2OrUkSA3IO4kqgCQAp3BBRQta9dLmuJIi5lCsWfgOpeueGS+ZCBScU6oIuS1WKk6dbJvABa7zBbEo1OopjepfoGZEYWUItL9k6bkRlpmn1YNcA2PQP0IwBLk9w0UcQlI58bNeZqC3yIsfenFTUUUCNw11cHpAi7bvJ5k9Cduh8k0jGoNiwhctvnMsbITKwgz1Yoy8hVgdzW5ps6wzJZTb3B7Udiq9rnotX/gf3Nell2+5FymtX5sSBFODLYiBOyi09B+1tvAguFYP9fDV0Lq6GS7QA3cDc4b7fqm3MIsGSbx+wGdIFtx0LqBvSQuvDuA7gPywsgUwE+f/iS8R8Ae/h3p3k5HI/XK9H6u78D2dL1/iSPfwA=);lineShape=1;" vertex="1" parent="1">
                    <mxGeometry x="425.965536373629" y="245.05262878182202" width="13.260398347368113" height="27.428841162904497" as="geometry"/>
                </mxCell>
                <mxCell id="30" value="" style="shape=stencil(lVfbbtswDP0avxKUqOtz1/1HgaaLsSwp0uz296NhqLWo+Ax9cyQe8X7ITPLwdnx6PUye327Xy/fD7/n5dpzky+T9fD4ervNNvyZ5nOTh5XI9fLtefp6f19+vT4vk8vXj8mt54c+Kk0oxLyjPf9cT3w6+rvKn+byRj3pde3khln1AEiq9guBJyj4gM2XXAWKgUAGgkO81pEwMfCiJXO+DPhHjPqA6qtwBSqYMNNRko6QnLoEoBRLpARmalCJxtBoyyoO+l3pApIrC6iixBQgCqAHRAtiDPHgKxqTQAn0fUMiNGlDihPzgQ0CATI5tWBkkrlYKwQIKcFoBta9W1ZkCABRKpjQK9iHalladDpe3dbpSAi1aIuUBUEE/ZL3ufXDMxCDVObRa26jIqIPU5MFrD8o1JfLRxjWBzGmPRuN1poJaLgwdlKHTalIciskDk5QrXc+VH8nfC2sdOsihHuXBJH3CQXIVHgCIK12L+sYklLiFtwYmQ3nQvJZkw4rIdVOcm8wJqL7PI7Q4eBgREQQ2ag/1mVjoEMQpSptR72OuwlEdtBR6DcvQACZJstSko7oCDb609zbLAEqdU7o264m0OXYXMKRBmk874ob5PKRWR9J3j6MMeFIoJSPugHii2jcCQxZ2PMoLYJcllsHIozVJr72z8uB9P3DLe3Tvy1dL8dzCez+aOsyLkUcTQatTigm/R9nS4vRGHm0jn12d/y+vHx97+st8Oq1r/vbe7vV6tP4nkMd/);lineShape=1;" vertex="1" parent="1">
                    <mxGeometry x="449.7153761985153" y="214.82768111502799" width="8.545584129072171" height="59.55104496677115" as="geometry"/>
                </mxCell>
                <mxCell id="31" value="" style="shape=stencil(rVbLbhsxDPyavRKiqOc5Tf7DQJx4UdcOHKdN/j50FruxRHtaA73J6xnxNSQ1yN3rZvWyHrx7PR72P9d/xsfjZpAfg/fjbrM+jEc9DXI/yN3T/rB+Puzfdo/T75fVCXk6/dr/Pt3wPvHYUQknlncf0xchJ18fHib8dtyd4UXx0uEjX8eHTC43eE+hXscnodrez7PBi/hSSGqDd+TcdXz1xK7zJ3mAjxQ6fxx5ZKCQ49YAUw2AUCm2EUiiBEJmt4Q4M6KnDIqgJrg1kQqsWs3kY0MoniQDQujLoIkuKGrVUUcouNCZuBWqRoWCLoswF0IkKYDgKLRpLYkElDoXYt8QslAALuVEtSVEVQtwyRKCiukml3yiCApng2ahBBrUpjXABrJ10/4B91thMPFNylOD6RZpc6aE+7NrHmGKoAYX+lOnoOD+7EaAjkFBSTJDRgvvUJZ0jLW6KJUKcsnMSU0ccskO4rM8/CeGXQ6aCCQOu300CjT47HqrCe4ruz+VUFHDke8MREog5kg5tXiexXI5gvm2pdCROIIAqLTtoDMngZHk5t20SFXx4H67qzRe0J+2d7TBQXsaf0Qg3sSrGRMwv0w+OcDFpvVqFVfgSjByCPM8/ke54efa3/F6+H4bPo3b7fS0PP+/f0vqp+kdKvef);lineShape=1;" vertex="1" parent="1">
                    <mxGeometry x="448.34319243858045" y="255.65727772249193" width="19.378615133873133" height="4.504998934127894" as="geometry"/>
                </mxCell>
                <mxCell id="32" value="" style="shape=stencil(rVZdb9swDPw1fiVIfVLPXfc/CjRdgmVJkabb+u9Lz3Nj0fMNA/amOHeURN6RGuLdy/7heTcEfrlezl93Pw6P1/0QPw0hHE773eVwtdUQ74d493S+7L5czq+nx+n388OIHFffzt/HCD8nXmtU0sgK/DZ9SZTk14fPE/54OC3wGklLhx8JcZtQCqnbIFLmbUIuFLgj5EwStgkpEMeOUJkU3CFYvP4OqpTSNkEycesITUnApSVSLZ7QCiDIfOIPQqOs24Q2H3iBb+AKhdoqfgPxrajV4yvKKUX1eMnbePYysgTFivDs4ldYMibpRdQKJVAAptZrqGXKIH6g5BSRqILzJyrs8QEoqBK7/ERYL1PL6jyMJC2zXBYEZHxZGd8yxKDCZprfAlgQtEFCcZqz3oF3iI5QSUGnEMu5U5FSBb1IAuXgZZ0QgSkUT0B3qFT7JAmb1FF7pJBXGwAhReLVDZDRhMKq1RVoZH+eOve+LSOvjFmBKpiyq3GeB8p/wVvFtE+QFjjQrGSxv3FRUmR9IelTmiOcHln8DhYigRyVOveqj6Ec4PTQ4MdHmPv91tR3qhDoG121O4HdyFLujMmz8f6MVwrJ4QWIrjHF4vDIZG3le4bnt97p2q/ZAuTzNoxu+AIKbB5kcfmE8Zt/4Vi7x3j1ekAmXjSpmRDnDGxt8E/PzL/jbXF70z4djsfpSbz837+B7dP0fo737w==);lineShape=1;" vertex="1" parent="1">
                    <mxGeometry x="487.9200995160645" y="225.500347851863" width="18.03375908603022" height="46.87794801576358" as="geometry"/>
                </mxCell>
                <mxCell id="33" value="" style="shape=stencil(lVfbbtswDP0avxKSSN2eu+4/CjRdgmVJkWa3vx8NT4lFxWcY0AfHPZR5OTykJn762L+876bgPq6X89fdz8PrdT/xpymEw2m/uxyu+jTx88RPb+fL7svl/P30uvx+f5mR89O384/5hF+LXaUUZ6Pgfi8vHM2/9O/zAj8eTit4iMSpwwuxbOOFSWqHr8S8jY/R+uMDSdo2SIUK9waJHIigeKq9RxqyAyFUptK7pDEn8AXv9EDXWXCAUddCoQ9CHCUPgtCy9UFIJSnbBjm3pDSDWEhAEClQ7l1KmcTBSpvKZY0qAiqF5vGNGo48KHWmID2+UkDUIO8tPgOHhHK1+L9UeYjnlsA1HvgTyLPFpwx4RC5ZvAdEdcTGHy0xYN3A0poh6bQ65vxEGXDOtehWeAfO95SMPyo2IP+BisELVeCPkI8WX5AWUQzD+YA/qbFr7T9osUw5WHxFyjXUN0H+FIpDfSPo4EGElD9ItfS0oR8dzE8c+hHxLTb5WPcX4L/qdM+3lRBvEGgMIAPCeeJi8Wj4OYpDQhNsGNvwmQrwR/Fs8agAjsTEm6BC+6EA2hJQsB7gQbw6qWNvUNQhpLjZUjoLNNB1ovacSAx7IFXb9FEogi8U10p6m8SpzanHBkMMrLIOsjpPxb7MfFOyrS/kPmhdulCddTlIPTHmNQ/EkMS2mtYebWnR223CZ6pAWzQnuc+S16ULGIzTwzu4B8ZW1hszoNgJSU/VCGcB2yJHEiB1oQ3S+1aNNpXQqnOHY50LvfBye7EBl973ADfF0DTqlngocsOa6OH2LeP9JMKZXbyBo95SvawGjhJZ2j6ygoPM/Ofd6p9wfbhf494Ox+NyC1z/31779NVyZeTnPw==);lineShape=1;" vertex="1" parent="1">
                    <mxGeometry x="523.9729995012883" y="234.00781665346835" width="32.80347836848418" height="53.873246794619746" as="geometry"/>
                </mxCell>
                <mxCell id="35" value="" style="shape=stencil(7VjLbhsxDPwaXwlR1POcpv8RIE5t1LUDx339fbldSLa49qQGesxtvcuxRHJIjrSSh7fN0+t65d3b6Xj4uv65fT5tVvJp5f12v1kftyd9WsnjSh5eDsf1l+Ph+/55/v36NFlOT98OP6Z/+DXjfKJcJ5R3v+c3lWL+++LzbL/b7i/tIxU32Eui4iHAywCIgTxaIVD0AyBVqhEAhEoZAMVTDgDAlHj0WchXAHBUxxVqJJbbAK4tJh2gcS4AUMibLRViECVONqy1kncAEMixBRTkg0YpDQB2jhxYopIstpQBNTJxtD5XkAZlkrHPVECMhLLYJAQGaaY8UruG9uaGvTf2ngriXeN9t1deAfse7c5rhznRyqQXTmoZuWqf2m57ZToSUGhKoTj2CgkkCVZmGgHqEyo0/b9kUkwCPA6ZwliYnhKwT0w82mNGF7Ep8JDRE+GddbiAkNZqczZ1M8CJc4l0QILNTjlfxyrQmHoEELuCMDmQNGWxSYJ4ciALRXccLYBBYWoaTHeUnsjrAGe740Qk4EPWbutsWCvqXbm52AHaYEFYFWC3xBhQ2iDu/bfAxKnThkscW+6vAwLxOKUY13PJNnGsFQ7yUJlCsoCKAKGVy4UPHlBDR0Acyce5jYlbFSdmS7Xph+tdzy36sMd9XpcIY2OdVBN2wkwqXyiAClL54UwFOYogc5qItChq1Jg01bYLeKgvlEwS7QoRlFzREg7WB9Q2tCBsc81NjN4suWLz4EBBTIB6DyAFqyQZ67yg7DOACvMQXBtoF05HwCVZqBjRFZC4VZEwdgEV6A7pbd9UVNcZBeoGnYFxKWSQEPs/Ah20b+7a90Ogg3r4EOhQoMcmETqvGZ6Ftb2MCdOTrSAZY+fzVJloPlt/3zmb5wWn4dlfxfbYHTMc/sWyTcMFyWkaXYCHF2W/GbICp4cKj2hmLDHgsuoOc4TnxtZbDcIcLbC9tqyQ79iPfo7pDn/P4fu3eGp2TPxxunRsxJE8mA13XzS9a68P51utl+1uN1+KXX63t2D6ar5Bk8c/);lineShape=1;" vertex="1" parent="1">
                    <mxGeometry x="13.743744742072408" y="123.53479511361809" width="21.278292190932607" height="26.39624398477724" as="geometry"/>
                </mxCell>
                <mxCell id="36" value="" style="shape=stencil(rVfZbhsxDPwavxKSSB18TtP/CBCnNurageNef19uXW0trneCAn1b72rMazikNvzwtnt63W5SeLucT5+33/fPl92GP2xS2h932/P+Yk8bftzww8vpvP10Pn09Pl9/vz5NJ6enL6dv0z/8uOIitTaBUvh5fVETJfn95uP1/GF/vD0fiXkAZKWiANAo5wEgmWJbB6REXAcACykCFOIyABKTRgBQkhEQmSIAcFsAhIQBgPvn2aVMFcWgpDIGXahlAKjegijlBAFxrENJMGhzKYWRGkwZUIO1l6kDWiQN64DJY/GACGIoTGmsQ1WKgHy1UXOASALSqmZhJF+usA4qlJsHBBC0lv55BuBKayVeWBBkoS1calRApXXRDyUQI5es0iP5jEsCqDEBnAWhgi38IfMMKFQLDLqMQZdZeNbSmuMIUGqAfFY410A14KCFavIARjEwsXqXcgUA02r1QUcEiL7jLK0JNJABksuSUERB23xwFmInyxpAxyzZQEHqbUG3Bb0T0FarQ3Qjq/ao7gMyZQco71HDqbdZgFlqPq0WQ8T94MTYslRRWmcy39ShghhiCF6YTG4VRa2e30amgMikCwsNa2Vd6MwsVf8HME0oN7MyMeDGpFsjwNgSQSFy6DmZAQqH3DT4RzLdlOb+pBYftSkJmhCxUhlN2BwNiBzi56ixSYDQxNw/z+uJwBimNXEEpAZbyHa84NIkUMo4+c0VZ1WiXwUKCZAZW3/qWGgzUNFWmRc7X+rkug+wnI8WhHtd1jZjJwJZoGpYFcpoYboOoIajMubI2qeAqjU/1pu5iBY4Su58hSnK1NifV+C/9Al+cx6pJPfWvfFfUR/4vcfyU4HOx96G83k8boO/+rTUM7ZyPoxzpwV4CVjMhFo7adf8cStPhpMz+PzYHaOB+v7zdfXd8/bw9278sj8crlfr2+/+Lm2vrvdwfvwF);lineShape=1;" vertex="1" parent="1">
                    <mxGeometry x="37.35153364594055" y="124.51041483236202" width="37.144165390873724" height="23.90877174920673" as="geometry"/>
                </mxCell>
                <mxCell id="37" value="" style="shape=stencil(lZZNctswDIVPoy2GBPgDrtP0HpmJU3vq2hnHbZPbF6orWYTs18lOlvgZBN4DyEEe3rZPr5uBw9v5dPy++b17Pm8H+TIw7w7bzWl3tqdBHgd5eDmeNt9Ox5+H58vv16dx5fj04/hr/If3CyeJso4Uh49/byjK3xdfL+v3u8NifVIavy3WMxMDoEQqrQNSpBgB0Kj1QGZSEEEjpdIBRSm0+0BjktABmkgYALal2AGtkCgEal/VVimBpJtS7Mtqb2CEPKU4A40iSjpSiB6oGZTVUuyBGAKFgIVQH6KButZKgT2QQZmqUFqVSVEEy1q8EHBLYTLnQuoGkjag9u4zabQCgFdmStSAENWEEA8wqJIGKrUHBEudKa2Aguwapp5fAIqARCn7HGDLVSrqywqbulHpm9qEC+k+sHDzwhsBKDd6zWWtGCirMimU2iaTG2XXtG4rV1dmajCCyrTjJQAGTVVKstoSAuxECR4ICIgruyo8UqzlOHnhGHXQZ4HC07SeT4hMXO4DOU4pzmeQjWNgDVGqfdLZOghEEBtMvTUSw4Efs5/GdrQLiBCmDc8BYIeuumeezXeWay8BUwbdyVT6eRGpAktkf6LPc/92F3jHhcmzt0tpexW3PqLRUvzwwgfnWBy/HzRXTBktbj1S1vJ1dp7VuO21OCl/LWcCVpPVscywWz576fz/enu43nBfdvv95YK8/O5vxPbqcpuWxz8=);lineShape=1;" vertex="1" parent="1">
                    <mxGeometry x="73.51068281639891" y="100.40148112498912" width="9.177006416978083" height="42.94149839714201" as="geometry"/>
                </mxCell>
                <mxCell id="38" value="" style="shape=stencil(lVbLbttADPwaXQf7fpzT9D8CxKmFunbgOG3z96EqSBUZe4LcZHlGu+RwSA7x7mX/8Lwbgnu5nE8/d3/Gx8t+iN+GEMbjfnceL/I0xPsh3j2dzrsf59Pr8XH+/fwwIaenX6ff0xf+zryCkCZScG/zixSQ/L8332f8YTxu8NHDd0UIGSncJmSPlhXBe9R8m1ALoj4hw5MDekDUITg4R/AJpRp8Z98vaE6nCJncvzdkrwN2yOxCHSVoQoMvtwnerRGuIhTUyI+IihAzQudBaILURa88S4bQ0FmaEqqOIQcUUnmTzlq3HJHZlSRLhiCVR5RuDa7oGCoCEaKVD1lyKIyQl79XHSRoUhtCMCeEiJ7olbyxW6ZZahVJZ6kteb6O74imlOCZbB5Zh+wQmd0kPmfxzD0SsL2PIxJIZRvvNP79vlx3k9DEyq6j64DlRo2b01hHioI2jLZYcVN21AmisS4KKWzP7C8h6p4q1imNqmbK7jNzfpVQK3LThAxHCi8nG3SJyyi6PtrS0nUXQuV9uNsDREk2O6t1wqaRXw8BRU/CSXmCX1vDihdzENXWUb/iPTrBewSNnxog0czZSd7csm7cwBtr1kh70YcGX2R3IIKJS8xm0enI8bb5TjVKeldAM8tUW3x0FZ+sy1Ki4+Ory9rneHn4vxk+jYfDvFhu/7ebpLyat9B4/w4=);lineShape=1;" vertex="1" parent="1">
                    <mxGeometry x="69.45694951876703" y="124.5498424522275" width="22.926903306979273" height="6.20147876139359" as="geometry"/>
                </mxCell>
                <mxCell id="39" value="" style="shape=stencil(lVfZctswDPwavWII3nxO0//ITJxaU9fOOE6Pvy9Yl4kAS9vmTZa4JI7dJTyFu5f9w/Nu8u7lcj593f2YHy/7KXyavJ+P+915vsjTFO6ncPd0Ou++nE+vx8fr7+eHvrI/fTt97zv8vOK4UC4d5d2vv28chfTnzecr4DAfFwDPxE0BQqRWACATRwWIjZrbBvT9sgKkSpW3ATERJw2QM+s2QPaLVYeUKIKQClPVVQppZLUKqJWy14BMwW8DWqMYFKBUciAkdm58H4gaKAR8hI6pR5kBoFDRjWiBIsi6JcsN2YIBmRpT0414D3KrrlG3elGHdUSyZWrCJlCmypZ+LZMDWZdmJdTTAklIZ4M+oWaoCAGwPkGCTAjQiHWri9APVUlUzRoglEeNCNQ0X3OlBMhUC3nNjZxhH5obn5cAxL5o2ddDAs4k5HS3SaMTKrV2U1as6qa9rzcOa7QYQIZckpCMb3TyoRzEGg1A6I1cIBDfCgh5n+hB5/BPjWZL124DwPGrH3pZGg2KyQ1rXFoZ1mjWztTNErnAhwGRsray/CaR9VtLaqJtQ85ErZZ7NhjDj0O16zdvtiGJalEOPpE3AE8F3lqUjahFECDpSEkfEJk8YKuzAXGGs8PNJcqBEshY9r8ZlzzwGB5Xx1vPhkmtF9RuH8ekst4wqtqPPHT5NEoxljsqYPdCzS7HEwm5YteD0rMnzmY9ahVHu7+Hkyonq8gIWytMMfkWSLUPj87/AZCH90n9aT4croP+8rud7OXV9V9BuP8N);lineShape=1;" vertex="1" parent="1">
                    <mxGeometry x="92.07157914907987" y="123.79414994632725" width="25.467984182284074" height="16.6890453953142" as="geometry"/>
                </mxCell>
                <mxCell id="40" value="" style="shape=stencil(lVfZctswDPwavWJIgudzmv5HZuLUnrp2xnF6/H2hqlQFSNpO3mQKa1yLBTXww9vx6fUwBPd2v12/Hn6cnu/HgT8NIZwux8PtdJengR8Hfni53g5fbtf3y/P0+/VptByfvl2/j//wc8JFqnUEBfdrOvCZUvpz8nmyP58uC3tfiJsCVAq8b8+RnFf2jpzbt0+OWjD2XIB9I1+UfSFf9+1zoRyVPXuKwIEAgnaQpGYZApyuUHGU/D6gJGraQ06UQA419hTnkAoMqUpIuqgpEQNAc+SbTTqBNjcmTtZDBDxq2fYtVXIRAKr1kEOn1jagUTZlzdRQ0o2aaVzAVWqWGkXYhQDy2unhCRRAp1sir9laExXkIZDXVZLeF9C4WqmtAA3MgwRQddI1U0Rs5S4QM4C7hmwDPLGWjNIgNapbAbjL2i5AlzVXyNYxJE2NzN3nXtJ/mTPTu/UZ3Abk1YhmSO8qwmcAkTKaByHzCtDQiCYKRgQK1G6hd9F9yKJ8eIBsHxLcJt7N22MprigJUQGd9Si3WGeCGQhHFSuZM/yOeEY/CijejtyiDttbMfYcO6LJzgCFjSK+eqWIUweGVABVNyL5vlm3AcUKjdwc0FpkWbzaQ8i9DpuAIEJjVnvoJztsoqb5Gn2n/HbnbJGiyC1qnN1xYh8AlZLVMYkngYzZrpPoYDzBbhOusMne3t1Yljqwd32ZLRqQAE1XwywVRqrqbD2FER7+v+GoVMyhyy1VPZhhXhQ79Q9aW3zFU/bBy/b/7eXh383+5XQ+Tx8Gy/f2S0COpq8IfvwN);lineShape=1;" vertex="1" parent="1">
                    <mxGeometry x="118.02597239447971" y="119.13642615896458" width="29.28067209354511" height="17.283754820503205" as="geometry"/>
                </mxCell>
                <mxCell id="41" value="" style="shape=stencil(lVfLctswDPwaXTHgGzyn6X9kJk7tqWtnHPf194WqoSNQ4Xpyk2WsiAV2QXIKD2/7p9fd5Pntejl/3/0+PF/3U/gyeX847XeXw1WfpvA4hYeX82X37XL+eXpefr8+zZHz04/zr/kLfxacCxT8jPL8d3lTKKf/L74u8cfDaRXvHUk08TFS8QAgxMEAciFXxoBQ2vdWgMBjQMzkk00pU5QxIFVK1QB8JAdIZ+kBTqiGMaAUqpaD1o3jGCCZUjaAwCRuDKhCoSsrkwOk64Z0TsSAtGMmZisNpgg6Ny9hcyqJBOUk5C1AmApodc0bQKQIGlEDFStXrXRGKblerlLIA32LNqJYQKJaYavZylUCOdBqpRicLauQoBW2ntYygMYpwNtOq+I9XqFaueZAjKqUKNmUknoKkS5NCDdAIg8cVLkNiRsgUEKAW8YrQEbiS+3vVUoRAZRD6kmjPqiB/KasAXGomz4IZQwoYqWhow80Ti3acSiVHJCGWrRLSe5wiJStvNUhMCVHtfN0gdKQupkauQ3DkUVL5+nYPjGyqHQcdFQiP3wWUBxlyyHpqMxjwGzIDqCdAWpNro2tdaeBWnXjFysNtRTaRoOW1ZJe7TGjw4O3OakeKyiTK20TXJFIYAXHlEtfJsSae2nomwSkwX1CmmIADDabrp7QEGNuu9N7Te/k0zVN00GnABKrokgJHd7aTnarTjumfCwhyjZ5buPpY02Tly4cqUcPYZtwNIi2ySC/OLflmpA0fX9QUP+g+E+ezO/H68P7NeDlcDwut4j1//21QV8tV47w+A8=);lineShape=1;" vertex="1" parent="1">
                    <mxGeometry x="148.93512360435" y="111.36156304444557" width="31.235171121991723" height="15.524781340363916" as="geometry"/>
                </mxCell>
                <mxCell id="42" value="" style="shape=stencil(lVbZctswDPwavWKIg9dzmv5HZuLUmrp2xnGvvy9clYoISejkjaaxArFYLDnww9vx6fUwUHi7XS9fDz/H59tx4E8D0Xg+Hq7jTVcDPw788HK5Hr5cL9/Pz9Pv16d75H317fLj/oVfE65moHBHUfj9bweC/N34PMWfxvMiPgfA2MUTQeB9QCSg0gE4Qon7AIkQ+wy6w2EfwAUKdYCYIDgZmIFrB0gJatoHKCfSA3KB6rAkCAl7VhGyw5IwIPcAhugUrYBgMihLHq0IlHtAhlBdWkNfdC0QnaKV1mKkVFsrt2ktTQgNgCFAcKomhpxsiuJ0DlXN2QLQaQRGoGhpqs6RkFpjZ0ACcnhFVYLJICDZzSC9vitB8moQSKboANXLUIB6WkuF5HWO7MiVeQi3ARlKsYDoHIk1Q7WAig4gA4utwTuSBMiGJQR0Gie00vd8yL0ZJSMNgezZhlqp6XTyR642qS1mFD2vVJMwGWrzhW1AaAdYALw+UARZA5wMFKzfK0A8eSeQYItmzwQYBC2trmt8FDC71nw/5KaV7UYD9t9P4pKKylEPiOwKQydaenGrtsRrm7pcLwxG1/ckQer7rH1xXw5obWz2te14htpbBra+b8dne4UG1yWLzj+aeHQ8r4h9BPh3VVmZqn6/7Mer+xh70fM77lJnySz48eKzHRuC6PDzflHOimiX745GV1MQm8z3EtSeoOQXUFdTBsUr4INP2//H6+L9Hf0ynk7TM3z5v31369b0ZufHPw==);lineShape=1;" vertex="1" parent="1">
                    <mxGeometry x="218.64833419596732" y="97.15773608792495" width="12.38541652052881" height="34.104945686981175" as="geometry"/>
                </mxCell>
                <mxCell id="47" value="" style="shape=stencil(rVfZbhsxDPyafSUkUgf1nKb/ESBObdSNA8fp8ffldiHb4tpTFOjbes1ZisPhoUke3rdPb5uJw/vpePi6+bF7Pm0n+TQx7163m+PuZE+TPE7y8HI4br4cDx+vz8vvt6fZcn76dvg+f+HnghMhLTOKw6/lTaSsf158Xuz3u9cr+1xJ02gfKLb7gJqpjAAOlAFAM6mMAKUEAC0RhwEgSiEBQKM2xpzMg9wHxBAojC6yUi7ARaHAA6AoRQDQRhwHQC3wTBpIdQCowMzVSK2OAPMJANIojEdqShUkQhKV0YMxnfJ9ADeKyQMUsMRMrTn1nVNzO3WFdHUmBeKIkVJcBQE8VK++mSWQOCNpFF+zkgKsJgpjnk1bDVVoL5Yr+4DqjaojKJNEQJB05Z8BCQYcG0n1AMSohZDVAwTIQqxnZQ8oDACFSvZBR6CKFEhWAAVZSEycfRoqqAUDRMdS7eV070hxJbwM8mBB86oUGBzJaPXSazAGS1woHtCA9qL66TMDkJaEInsA6nrnxn5FUgOsmvZXpEaUZwouzdYPYDWr+34hQV17Vc25a/2/2Ev1OtWKhW2MurnDvZhuM2qAUXa2EigAlOzHSMEdsqxm5zydQQw2i+sYtEWlQHaFKY2DylaMgpqwkIw65XMXvE1r6uvBGRCpAg9sg230ELnXxu3S8R1MYIsMvh1J3wbumLsFiUlAykJXwGXrrIAd7mRfzBkcJveS6uaBKghVO9EXcwH6NJ5rcPYRryDN26OVxYKL2dvjrhv9+VFbvxUvWshtDFRx7KP1+l+vFH+3t4fL/eVlt98v15/r//19x14tdyV5/A0=);lineShape=1;" vertex="1" parent="1">
                    <mxGeometry x="11.935112697108366" y="363.1567814414284" width="8.95321447407624" height="60.80195756726258" as="geometry"/>
                </mxCell>
                <mxCell id="48" value="" style="shape=stencil(lVbLcsMgDPwaXzWAAME5bf8jM3EaT9M4k6Svv6+oh9TgWIlvGGuRtFoJGlydd+tj2xh1vpz6t/ar21x2DT41xnSHXXvqLrxq8LnB1bY/ta+n/uOwGb6P62SZVu/9Zzrhe8BFAqKEMupn2EENpP52XgbAvjuMAFopUKpAeA8e5xHsAkMBIN4RXIQIofQQPAQ3D6AAyheAaMHEeYBHwDLrGCAIOVjK52XAiIebCKbRlgjmwZNALGUWrwADWvBAoMukA4osadBlzsT2et5e1Skza0qwt+BNYe8MOKEIGrPQMsAieDsPMD6fd9UqgRI8WA2xDAllDy5kxh8EMIUW65CkorGSUU+SFqoWXd09TKsXPMQIVHpIdTMC4Cr9sTAkgIFgJ8rzQtIGsOpPWdo+gCvrkJonCIVjThb2Jw+tkqY7I4D7J1b9yUNGiEkr0GVMaYxJ+q4jIhKn2M1BLNRt6eA2YCpty1cD1gOAR4ISZEF1/2svykgz36XumGInJMwZhFJ3Dqxgz81e3SNaLJidBCRrzjkgv8Ce6xPtgnhYL9ouyDdM4kmESle5yRf3gyWLvp5edzSx+D3yAIAX/8+fbbffD6+n8f/6ucRbw1MLn38B);lineShape=1;" vertex="1" parent="1">
                    <mxGeometry x="46.03959838687285" y="367.5398203050115" width="4.23656700092531" height="6.337824886238052" as="geometry"/>
                </mxCell>
                <mxCell id="49" value="" style="shape=stencil(rZbdbtswDIWfxreEROqHuu669yjQdDGWJUWabuvbl57nLKLrMwzYnePws6RD8lCD3L3sH553A4eXy/n0dfdjfLzsB/k0MI/H/e48XuxpkPtB7p5O592X8+n1+Dj/fn6YIqenb6fv0xd+zpxkUp0oDm+/31CTXy8+z/GH8XgTnzOl2sUzU4rbQFESt4BSLttALVRzBySlWrcBzRRKB+RGLW8DjUn7FSpT020ghkAhdEQTyoBobRHlCmTKDICybPkKVJKAD9Hr2kwmkDmtVNyWGhWka6TKHXCjw8eps2IKfomKgEBpdQgFQCkk7GVKCBCqxSeiAJkMCC4RQqUBIBG7M5hwoDZKXZ0hUEQqRdLUAWoqgWKq1fecAQFsSYWkV8mqBbWQNoqrLSXQ1S1RlB5olBMA6qqWIjzDVGou0wytzAB1eUhLT21tqbkVzKvQGRJJ8+UtwCxNk+RWsDcg05a4umrqhty1LiZxAyhwAbPGmD0QAWDlnVdO1tCESCuvLMSg+KYW7WfQJPT/BLIuql8nRKYIZM3Bu3GxsQhWSELqhlYkBrKKidj3Q4okAOCV83GBxRe9SEoMwlcj0XoB2KSF90nOJKA5bTN95wisIaHYy8/LsPu4IJZkXicbHs7+vhDgRIjJj5AAOybahSi4eDRm7XBt9X3gW1y9WQc4lcWKWbw8IFci3qoZjth/vXP+Pd4e/lxwn8bDYb4f3/7vL8T2ar5My/07);lineShape=1;" vertex="1" parent="1">
                    <mxGeometry x="46.22457735572914" y="394.54912423712494" width="10.46671647233564" height="32.07521137289237" as="geometry"/>
                </mxCell>
                <mxCell id="50" value="" style="shape=stencil(7VjLcloxDP0athpb8nOdpv+RmZDClIYMoa+/r1zGt1gXzoVdp9MdIT7odY4keyUP75unt/WK3fvxsP+8/r59Pm5W8mHFvH3drA/bo35ayeNKHl72h/Wnw/7r6/Pp77endrJ9+rL/1n7hxwnnC+XSUOx+nr7J5Pj3Fx9P53fb1/PzmWodznOhJACQrIHoqToIiDwAUiKHATy6lCsxdonjACiFiocAHwZAFRJkIVIZY6ih5+0awI0uVU1DAAChMqa1ZirIApOkEVCoRgBwlNwIqJTydYDyYCyDdw4WTpkRrYEKshpmIVcKIAIhX23ECRGJcrUpDcAfR9lkFBPVkTfxBhJQsil703mmjGhKyY86YIqgYGrdKFPzk1CB4+hPCJRQrxBbYOFekosAZqsCraEDAJFOmIlzSqECQo4UZxYSsBCD7RXiyYEkJUfFAFRnoGrZd1VNZVCpAkAJVmjqJMqSdjc3EjUKMchS9b33nAEC6EZK5DxzKYIsNWWNWYpT278MqLYOsZJHYnAz+SSlF5BDa29m8GhXRmkqVtAp975/GRCtILKD01YFb7ihbEEtqWia2AIqsFDUpfsssGXfQgzF2fG8kKVc7PBsdQCFU4AhU6s0YF/bD0ZqLJCpeMulBboW6Z30RkGU1JvErZJzfXbcKmqx42qhbeg0S0Zyscv8mh6shdITfU1xZSRfws31AmAhhplLukxWZEGDHltfqn1xuppWo+mFGO4F5NA9ngCRGI+gNA72pJ0KUCO63ufOKw0KF1yXy7QKcF+RL0/2alul6AQAmtblJJhlo8Bm3LaxcRVoXEI7erETRRPNaIP+R24Bo4D+3wL+gltAgOfvuwXo/jn6o+sfg1E1i7fNXyRliqP0dTonnP/Z/R/dGsTKcuGBgSmY7gjXkdn6EqGGxU5Z6W3mCjlNchj+euyXlUkscF5m2+IcBcCEakcZFqL3VuoL58UGi93x09S6Ldr2ciR3JNPn2c0L1koHgLkLYirc/VS2eF4//HmXe9nudqdnvfP/23c8/er0BiiPvwA=);lineShape=1;" vertex="1" parent="1">
                    <mxGeometry x="13.759545497361387" y="555.2042764586436" width="24.849900618623668" height="28.683807841981004" as="geometry"/>
                </mxCell>
                <mxCell id="51" value="" style="shape=stencil(lVfZbhsxDPwavxKUqIvPafofAeLURt04cNzr78utobVF706Qtz1mJJEcHtrIw/vu6W27ifx+Ph2/b3/vn8+7jXzZxLh/3W1P+7M9beRxIw8vx9P22+n48/X58v72NCGnpx/HX9MKfy48JuWJFPnv5UNrJPH/l68X/GH/eoO3v2XA10TS1vEhUKsDoWRiRLDfIyFnShkQKiUZCKkQY0IOA0Ey1QIIhWobd1AKCgiJGnujFXg1RhL1buWwTpBGOY2ESAXsYCcu+e5IdZ1QTBni45BlnWAndoQUKCEpZYpjHGKC2tPQhTAHjjLCRwqjkyIxwkuPasczNaALTZQ8PgCXqnk8ODwKslYSdviE8M0LO2B/al/u6p8CEsfw7vyJIvKPdoXNEiIFqW/47IoL1LTZW8f4KjFQqPkzj/EKFoAECIWieELGinCJPxHQkYRScSYoCoEVitHkRg1UIkuZO5eiYmp4l5NWGvH64iXBKAVCz6ir5BJaP1Lzko4MA8Cjf7g7bC0lk8czWr9Qyw4fsUSDODyqupYCITv/wJKiXnBCFZw/8GzfNcAJGaw+xyqFT+L5gwCPDhKmAggt9ISaDeA+kyw3skotDgTrfAWUUetzMrb72voAsNxb7UhjnbMhCqk03o0slhcozaaBQv0OGdnQ959N0D4wLOLN525gKb13Lh/Ip1mWLvTleYWqKxMBFlLz3+hRCb0Xrg1QYSRMswFwkNXZNlpgulNgsR2ARxkl0x1ITdvBTQcmVJSbsXhll9D7z5rRLndq6MJajpqJZqwulk0o2Wx619HoqSUiXbBv+dZ0KyqQffKe8dbQQK7Z/WO0QBXOLMW76KYCrmWO+g0U4MU3KMMLOJD1u+YNRgU4+GKkuKCyr0XW4jJYn3s5n/ECA3bXP64tfQXvMlkZDuGfvZB+jLeH6+33ZX84XC7Pt//9bdk+XW7a8vgP);lineShape=1;" vertex="1" parent="1">
                    <mxGeometry x="44.0037766534258" y="557.533458875062" width="34.79284301112354" height="28.859641719491744" as="geometry"/>
                </mxCell>
                <mxCell id="52" value="" style="shape=stencil(lVfLbuMwDPwaXwlRFPU4t93/CNB0Y2yaFGm6j79fGobbSGrH9c1xOBaHM5SoQe5eD7uX/eDd6/Vy/rX/Mz5eD4PcD96Pp8P+Ml7taZCHQe6ezpf9z8v57fQ4/37ZTZHT0/P59/SFvzOOnSPnJph3/+ZXsrz4MQOO4+kGUBKVUsWzkI8AEEmlAvhCDgGUQq4AwVEoABAocQVQ48AQwLECRCXJACCUtAKkSMUDALdVyok4fA3IhUKqAJZkBCt4CjWFkokBhU5mE9Lr1/FMXKtmOgrwhVIKdbzJKOD7QhJawglUyHzJ2gI8YCymsm8BDEoalJi7FRLgHKjkjgMwXvQUS1clUNWYliLeyIC6LWZKvc4oJZO1MV6GTo2uWyFTASmpXzJ+BxRSIFyw5gktoICUxFGuq3SzrX1uJvu7tEsk1A62RJeTR2Yip22VAvCS64ROpKCqjqQpaqQIdJYuf4VWNcLNtm3eRiJw6XwRoLdNtdC1G3Ke+aJPicHBoEy5tADF3g6+rRIDW1j3+A6AmmEC8BaAT+Q60oKENop1Q9vR49A+qRsPNwM0W/fK8WkppVqHlQPaAK4u68oIIJ5KTXplyBDzUq3Dyhhj39Mtc5K5W2sKHp4lIosz3xMiRYxzu2+7ZeT4vHlMA2niFUgw7draxDPI31qnqQ/egWNpBxIcn9K2fLLxzRv42sTGYUM9P9r2e3pNh2SdD/bD5sH8GwB7+LgHPI3H43yNuP2/vTfYq/nOIQ//AQ==);lineShape=1;" vertex="1" parent="1">
                    <mxGeometry x="74.9434752149956" y="537.2845387905845" width="4.708928928957065" height="54.99949074786233" as="geometry"/>
                </mxCell>
                <mxCell id="53" value="" style="shape=stencil(rVbbbtswDP0avxISKUric9f9R4Gmi7EsKdJ0W/++9Dy5FhOzGLA3X3gkkTzniAPdvewfnncDhpfL+fR992t8vOwH+jIgjsf97jxe9Gmg+4Hunk7n3bfz6fX4OL8/P0yR09OP089phd8zLoHQBMLw9veDQME/X77O8YfxuIrHDCgdgBBC2AakAKXfAQMIbwOYgWsHiAGYtgGFIWGfA6S6HS8Etd8guBkIt4p8xOfixBdIsS8RZCdhqVD681TITgtE2vZLgRhC3gbEsCS49ACBoruFbZoAi5tDNbTIEJ0zaZG4TyJF/0gM0lc1JWAPkCCYHZQoyQEgYO4BBOIRSXlgAKGp4yagCqS+rJSgOFWq1VIPC4gP4L4PE1kdMumRAvdkIkhep4MtawFy1CkR2KTQ6L6lTtOF8BkvYjTx0Vs/W/Vjs48tZlOfb4biqf+qxxGhevYiraMLQKB60hGrNW0B+mrGK9pF70i1+ckCUEPwSJEbZ1bSyR4gtd8rcdL/BJRsDYZ9g+Fi1ZyVed7Nhq1NC0Da1XX77qy206VC9HJoxGnx2klymJGtdFbOfzsFa/O6gefa1AqyxGcQZ3205qLq9swiQkhdvPqZd9Vqg/r1K7kFvboHiyrHOb/G995VYnO/jXgziWR1Jzff2DeMVWfOFYXttEs8u8qnNgitNOB50b9Og5/H68PH6Pk0Hg7z5Lr+b0dV/TSPuXT/Dg==);lineShape=1;" vertex="1" parent="1">
                    <mxGeometry x="59.88058982999553" y="567.4633299806787" width="27.514190686654395" height="6.913679334822614" as="geometry"/>
                </mxCell>
                <mxCell id="54" value="" style="shape=stencil(lVfLbhsxDPyavRKi3jyn6X8EiFMbde3Acdvk70tjK8fkZifITZY1yyE5pKgp3b1sH543Uwwv59Px5+bv7vG8ndK3KcbdYbs57c66mtL9lO6ejqfNj9Px9+Fx/v38cDl5Wf06/rl84XXGcScOF1QMb/OOUJ83vs/n97vD7XmhkM352KnVdUCsJNZATsRlHZADpWgBhRqgVJiytZAaSVsHVKYevQ+B1wE9UK0LpzMAdJJifWjEaR0giaL1oaoPCNApW0pKkkEeREaaroBMDHxQgNgoqVcZREkpCVspRSogcVKp2yjpDsqDRul/TK6ATgU5HSh3C1B5d5C4JSUFgDz0RHlBKSNAGIyvgEIdON36AhApggJqjeoicUh8CuhOGok6KKAmFG0T0B2k1s6eUquwplWbzVnIVHDFJVtALVEFPgj7vqQWGEhD08Td+wDV2qiJBWiFIAtC2YqvR2rABw6BgnVCBfyJidSsmJhYoBPVJkIybkx5ELgCGqwgJVAdJaGCalSbtZXrTRzW1FSiNxGQmnhR1RVei6p/dr0vDZurgPgVQBV/LVbtrqiqMwWbCL2DBFnQ79lEFHwHlUTBCrxmqkBMWRuXjVLFw0MK43s3AAGJi8FnWiklQKmNWeQmSAWVnCekFBuI0aJAmWHWgg+p+gsCFEYXvbo7LrwV9q4jZYoo/L6nxjFpfawHH0umgEqAoq2xMNTxcZ8Yw8f7cVTzlzg3dx5NL6zlJ459Buy5UHKDMBw6WS88N9bCzHLzM6fGC6X2q4P8p+d18f5qeNrt9/Oj4/Z//8rQrfmFku7/AQ==);lineShape=1;" vertex="1" parent="1">
                    <mxGeometry x="93.0323492138366" y="569.3650136896351" width="25.23434426322123" height="21.46502090802235" as="geometry"/>
                </mxCell>
                <mxCell id="55" value="" style="shape=stencil(lVfLctswDPwaXTEEwec5Tf8jM3FqT10747ivvy9UlYoIWevmpjBYg1gAC3CQh7f90+tu8O7tejl/3f08PF/3g3wavD+c9rvL4apfgzwO8vByvuy+XM7fT8/T369Po+X49e38Y/yFXxPOUYojyLvf08F4kv6efJ7sj4fTwj5Q7e0rlbxtzpHEd/aOnNu2956kGvscgH2hKJ19Jgfshcn39+dMtQKAo5g7gJ6IwBv5PuLgKQGKRkq5A8RIHnlYcZQSCUNADR2gaAwgC+IpGkCgADxoiMwWkEHQUSj1LBWhAjykaIMuTAIKNVcKfaZzIQZBV26FMNNaGm+3AULeADIVDwCBirMAlLiqeQ0WEEDQNTfWFzF4BNAQ+/5JlRIovlop9zFkpgCCZjd3/IyQlpotF4amHCmAHlUA98WUcyNuK2pnVKPA6tNEGJnU8kK6VOOqIVzzuVVMsVoPSIirJx9sDAnRqtLnLEuMynUlfRkLkwKCuZIQFwiwmWZiIBsaQ1qVa0BX8lQMQFUAAQL5smo5JBtx5eFO8WU7EhVQ0ZV0xhUbNExcbe0y06pTFDeQmerZU0bFpwDTcQFLX20kzoCEPZSW10V5C6qljwJ0fvxTxrlFK7ySpol7WsdiAaURg1WNUZ/RcuWtVL5n5vZkV1r70ljI7W05Vpr6ptYCFuCCteV6FyU2p7cTserpWdo2BgRVMxWZCgJIy+u8MDli0HGcyPV5kAJXMt0Ji9mKC44htGmwWCvRHqpBm/1HF1c4d1c3whpQrCqNayuwz1ZYdVNm1AxtcVnYI4ZW74Y79vLB+3jb/XfinZeW/+RT89Un+E6+XLvtbB/hMrlakpQxBm25/n0P2/ij77z79vrx/qh8ORyP05t0+X/7CNWj6QErj38A);lineShape=1;" vertex="1" parent="1">
                    <mxGeometry x="126.78204392831276" y="561.623703413145" width="39.38422496943519" height="29.58142548088697" as="geometry"/>
                </mxCell>
                <mxCell id="56" value="" style="shape=stencil(lVfLchtBCPyavVKzMM+z4/yHqyxHqiiWS1Zefx8UmbWY1bTLt5WWHoaGBnaSu9ftw8tm4vB6Oh6+b37vHk/bSb5MzLvn7ea4O+nTJPeT3D0djptvx8PP58fL75eHs+X56cfh1/mEPxfcLJTCGcXh79s/iXL9/8/XC2C/e74GJCrZASJTyADQKCUHKIFCHAO4Ua0OkBIJ8CDFzluuNFNMY0BMNM8OwHoEjwFJWSqeJaHaxoAsNHtApADsC1P1rCpHYWxfmaR25zOybxR9xJpHBmluGp/nVNOCstaUQe8hRqozADRqPuSCY26ruiiRGrpSXXlolsdRDOJjqGK83QZoIXn11IxZ4r6QaiEGHjRxrfQeCohBz0uepRqpgNKrqnevz6rqAXLT87raK4VmELSS2DxLWu6MYoj22gC5mM9RDNHHkNlyP2Kpy3RShSCWWs9S0iNAy9BMsxdQyrCxNpVL6D1k0MXOivPlnYP1tZEe3gphAajKUQzNFLwAKglI3BwWCS+pFmN65EK66VBNU6Oom/hyVaYRTck69QJIOHOq+c5DpgZqowVj8UrUqNtXZVH6K2XUBTIx90EX1O9V89zTmpEgpO8zmrgGWPo0QHtv60aWwBGk3T37xOmURu1bNV/8lSTBqah7BXsPEe8B+rquJNfAlWKg5BVUEpxZwlZqS6YbbBu8ahsqKUTrnE0uyyoQPlg2rDaXK1UYg+bNdz5NTADVLZakJQsZNr6w2t6CzbyBfdeT5kIRJC0Yf4t9pAj4CcbGYj/byns7A729blbg+kqPbxY6bQWx3ylf+x8wz30rSja3bouyF3GC1Kx2f3UHzOew2ths57ttz7Z4vNcyBTSgZFULbHyNAJ/8PvoYoA/vn2NPu/3+8jV3/b7/fNO/Lp9+cv8P);lineShape=1;" vertex="1" parent="1">
                    <mxGeometry x="162.39117079877042" y="566.613832528702" width="32.571316187668344" height="17.183690346350648" as="geometry"/>
                </mxCell>
                <mxCell id="57" value="" style="shape=stencil(lVfLbttADPwaXQkuuc9zmv5HgDi1UdcOHLdN/r5UBdlayp4gN0XhiMvhDJce9OFt+/S6GYTfzqfjz83f3fN5O+i3QWR32G5Ou7M9Dfo46MPL8bT5cTr+PjxPf78+jZHj06/jn/EL7xOuVUppRAl/TG8i1fj/xfcpfr87LOJzoty6+NAgICqV3AE0Utb7AE2ktT9RJEn3AdKo9SWkRAKOJIVinyHn+c1tQKaiHaBUqgyKZtIeUCuFAGhVatIBWqIAMlgfat+HlolRBiuxP1IrxAIzOJZMKzCDUogeUAGtqVHupdEaJdA466s2D2ighsRzm5YAcKSYSZMHFJAhCiXxgJCBvO177FlSBDDluKJNv6API8DVYL0HWrIjJddp6z3ytJC6TmNPG61BPYCBp61xbiw1myMFSsMXrVSRNNpc4uJIAUgjy6ycBaCCovNarZfhedeiTkuZMjpSouYMVHAGY90BKmXkaV7NpTY75DatmWrxAMRSEj8qAzMxGq6FSl2l+OQKWk0BRVPA1LfyaAZVfxkQordctcEEGnGhZHkDAVqZpGfVxCUgXrx9EnZ08UIyktFtErLfG1SogKbZFHPaDpYTaLswxb6EMO8Ft+PFX4gBrhnFJkxvBYbmtAa5q8R6AiZYteNGF8+AoGrDpPh4YBsTmPrvo4uqiV96TORAoeNwi45PBgqyUdXYxSM+r56d4y8NvK04XnlG4Vp4vemvqzAjgr64On8ebw/XPf1lt99Pa/7y/36vt1fTbwJ9/Ac=);lineShape=1;" vertex="1" parent="1">
                    <mxGeometry x="238.65530742751423" y="543.1099558076394" width="10.320437068677572" height="47.009095058605645" as="geometry"/>
                </mxCell>
                <mxCell id="58" value="" style="shape=stencil(rVfZbhsxDPyafSUkURef0/Q/AsSpjbpx4LjX35dbQxuTa49RoG/rNWcpDoeHJn543z69baYU3k/Hw9fNz93zaTvxpyml3et2c9yd9Gnix4kfXg7HzZfj4fvr8/n329NsOT99O/yYv/DrjJNAzDMqhd/nN42a/H3x+Wy/371e2Feh3I19ClT6bUBWgBgAp/GJqwBuxNYDC9VyG5AyifWQGyXgIWaq1kPRNyDoTsHa10iJoQNxAGW1wRBKtlnQvARAUqVgY25MERwpd4rVAvQTgNUixNECOrUElVGSAfQ4MnkV0BZOFgBTjSAN2WuvF3gkaZQtrRIpgqClD6UtgEQBedCgbfkIU0IehMQGLVh7M8B5qJQASwrIDtCoAmlo0CVYQKeOPLQR4gIQ7KFQtx5iCBSAvpUUTt5FB2LSPMnqTAnxGqlnH/UdQAw+EQKKWltrtxWkPGTsITgAj9Z2C1BtUSsNMBGJmvMQqVSYh+BYCjgPxXcBBVTEUvW9UgGCazR1H8OdCvKAhPWtUlvVaAJqvVDzRaob0resGk2jiGjSknSAThnR1AYpFwWR0ZHqmDgXAEFiyit9y8jldQD7yT63z/wfATpxmpMrUwEstULVBR2H4q9PuTbyuswgzQMQU2n+SDq0KlqYKlU3R3W0o4Up+/7dAzWQuJR8jTaspbg0iQVQoAc9sNsd8MK0Kp+aYZfRGWvPU1S8KABtKfZAupYyWsii5zRHKCRmP070TQWdNSuDbpGuFNHmrcPDZi3qdAAeVGdijxTgcOjVt5gAu15v1NnZo5muhbK2B5R2GTeRD3tG3SL4nhpGQLemJ9s2f2cWRhKriTQ2rVvDNlnRMW7Ayc+pDDuL2kcriILt41iWlyqDRTMvPK6K8fL8j1fJ+/b68HFvfdnt9+dr7+X//p6rr853ZH78Aw==);lineShape=1;" vertex="1" parent="1">
                    <mxGeometry x="57.60545536381096" y="654.5275258987401" width="43.87949186966879" height="43.21199585937225" as="geometry"/>
                </mxCell>
                <mxCell id="59" value="" style="shape=stencil(7VhJcttADHyNrijMglnOjvMPV1mOVXEsl6xsvw8YBZQHFNtxbknlRond5AzQaICzSVfP9zdP203k5+Nh/3H7dXd7vN+kd5sYd4/328PuqFebdL1JV3f7w/bDYf/58fb0++lmQk5Xn/Zfpid8O/FipVonVuTvv/6JlOXnP+9PhIfd40iIfSCkShwAIVMOA0EKTT9XCUyZB0INVPs6ITRbgBEaU2yAIH5JrVPIgJAojVHqQrECgq44joRKCb0hUMwjoVEAeQhMwp7Qyjqhk6QR3ymndXzzWVB8A3muFMqAD8zEvE4Q6osXdJC1TKV5fAUhTSQLfEK6oyI+oBXgA/Vxw5pitP5AIh4PM2zpmfEFq5rKKOo+y/wifs7OiyIQIAimPq6/aQRADSSKrowjNZCvYncNXzBeizKOCZBADQRomYGsZQoykAKl8Q0pUgIhzdEbi0ahAoIkyqObBmyOJZtm5izDPddkt+cgEYPnt2w5NTxTAaLQmnIx1RwAUZxrfI6Q2cAqfjTSBEU31fj4/IzxC5sT2Gu0ZnlMWDGNXMYLiccXtN9MXBxeEH7hWoUY7VdrILr9or7U2c8HGZpKX7QlbZ2gxKbnjy4Xbb5YW79zxYDXH33bY0vIZXzyemMKSP9i09IZj5qeerjrGjqqoHg2P24xtKxJ/+ziI0ifah/dxV/g2LFoG8n6ztoLXFvKpti1DVfn6iQowdUbULG+s5aAwA4PA5Tt9gs8MFwV0MIgItqv+qW4/cJ4sjfoDKegt+J1CEjBrR8VQG3ml+e5jxgQSveOGzJsedJ9RKeaBB6XmylmJlTKaFJplqJZ0wLbtjZdN3rkjAnBD0+CN61jgCsb7fwZ6FqnITc+1QydKERfCC2aF699ovBojaoV1Mv+lo8gNA79/wj6tz+Ckm9/Hc8rxa+nVfPvFcG5IlO/7OgsY1EzVRs+PstwHwSiDQRl7OIBDirjYpL/zSMiJbiWM6Ud1b3aszNsNp2vnfgE13S0bJB3aR6aJ8A6YJPBTGgmlTWHL8kTCmg604fP4g2QoB1j8Qa4JFl02lc2rd8ybwrr5HdvSpwSXH2+Io0/OZ98jaAX5+PQu93Dw+k09eV9f3yqf52OXtP1Dw==);lineShape=1;" vertex="1" parent="1">
                    <mxGeometry x="129.8071123919076" y="643.9987894562962" width="35.236995266503456" height="50.706126458867644" as="geometry"/>
                </mxCell>
                <mxCell id="60" value="" style="shape=stencil(lVbLctswDPwaXTEkwBfOafofmYlTa+raGcdpm78PVFWqQUfbyY2WsQSBXTwGuXvZPzzvBg4vl/Pp++7X+HjZD/JlYB6P+915vNhpkPtB7p5O59238+n1+Dj/fn6YLKfTj9PP6YbfM46pxgnE4W3+UAsl+fPl62x/GI9X9jFSYwcoTKLbADZAcoCkyxUfAoRJvQdplNs2ICVq6gDciNM2ICtlH3SsFMo2oGVKxQECtQzsG2nu7EPYtlem1NtXcL9mKsGniAIgTdsS3koaZcCZ6pLwNUERJiiGNcAVkUkBaeaCqyctQFlopdQBMgXkIVG9kYUgD7GXhQRiQFurpLUH/L3iY0Ci7HlmSwMgrsWFpxVgzIEnVaXki8cqHBVPtVLx0rBaUBDDBBAPsIIF2rAniQesLrdiTl3DIAZitaRKF8GilC3WqmctUAQBmywkdvaCii1R8fZMEQtbfLyZGFdO9JpQKAmzV28fE64DpeIfFE2lqB01ir5dWD+qgGLrXx0FbElAMTOVm8KpoMV/GlC0b9lJKIKgc1lUs9KWICDlpZmsTVig8KzUu1HbGI4Rq9zkPUyDAniwHp090ybGCmotCoknburjgLhpbnRzIeBZaLP+xgPqR2UZ9Vf2AdinpRivQhagVdtucp/TAIRkAXf3MzF4T+jbacPvvxm0tpwU8J7Qd0cTEWqnceFzXQit38D8fG6B/L+9Hf5tq0/j4TAvu9f/99utfZo3Y7l/Bw==);lineShape=1;" vertex="1" parent="1">
                    <mxGeometry x="139.33395739300317" y="662.2510863794719" width="21.651030116060706" height="15.511490966679096" as="geometry"/>
                </mxCell>
                <mxCell id="61" value="" style="shape=stencil(lVjLctswDPwaXzEkQYLkOU3/IzNxGk/TOOMkffx9oXroCqC1mdxkiSs8F1h5xzevj3cv+10Kr2+n4/f9r8P92+OOv+xSOjw/7k+HN73a8e2Obx6Op/230/H9+f78++VuOblc/Tj+XN7w+4zLFNICSuHP+YYU4v7vztfz+afD8+p8rCQWUCr1tg1IQqlZQKSYtwFcKLEB5AQtZI2hGwAz9boNKImCtaBpyAjQfAwxU+dtgHSK0QISdGnJerEuKQBkScJ4fAk6UQMuFSERm9ZMFQXNlF3hKjFwSdNagu2lTqEAQKVkg25xvGIrrdVWumplZBtQtTcdgInTNqAJFVs4rUxCgOZdEh6JvgrocfBrBQjAQs++WxXAyIJQdoCMXWq++USoAsb1TsW2hlYmA0AMgYLtjZpgqRcTtl1rGaXZDMJZ0N5AABlZvHRfGK+4DmBPuaVdAYOWUgcPaCBNSzNFD0AxaLtm61LtYz5fByjnbW8oRRJyiam6OuTRXlsAcRY0DchC9nWQNqK6DijUHKBQR0FPU0AJEVB/h2kKMEXEUX0sEwDE0AtJ8y5FkNZeByPXQYNFrQRKU1oLstCpu0pHSGoFNMe4jC20CaAbBRGoUqhTeyOXPgtYesmOPq29AJc0xGT1j9pE2mGZvZYPq2G4tXjF+dTh0tJFzrY3eiIBFljnjA1C5wyDyrFM3adRg9WuFqKNWtUBGhs5+pXCFeqZrLrSjr500YHX0xp9DDGOQbKl+thZoACGsUoLx2lcZ11oLoJYPpI/3ZYtFbixJI0iXZIqcI6VaXhrmlGdZ+2tOjMgda9jzjJUCdIAIOnWtbNYlUMGZYjBd5Lu9Qwao/msKhkimBnVz/qGF1yhPKmAiNjpN+6iS1CGBnVXMy+Cml2iW01hNC2CF6zauEgdzlKPh0beOj8Jhgp4eanmSnyi98dJ3TbIYxWmlpYiUHl+9hP64/N68f97/eHw9HT+3F8/99/3euv83wDf/gU=);lineShape=1;" vertex="1" parent="1">
                    <mxGeometry x="155.72864370158743" y="667.5678600805011" width="29.359344833706736" height="25.517490225789086" as="geometry"/>
                </mxCell>
                <mxCell id="62" value="" style="shape=stencil(lVfZktpADPwaXlUzo7n0vNn8x1YtG6gQ2GLJ9feRQw1Ywu5U3oxpjXV0S5oNP33sXt63mxQ+LufT1+3P/etlt+FPm5T2x932vL/o04afN/z0djpvv5xP34+v19/vLxNyevp2+jGd8Otqx8Q8GaXw+/qiBarl75vPV/xhf5zhY6IQjEFNVPu6QQrUkjEoekQEXygUxRp0KhUYxOHAzSWhzsCgUm42aKEqIAYN0QbdmRKIgSOVYg0ycVg3yImaM4jUQVpLppptDJka+EItvg5T4UAMrVO0QedGCdShN2q2cKlRBnUQJZ81YMogBMWLDSGSAIck+5AD9QzwmiJ2+NgAvlL35yNmS6MuDs+gxtIHje/xJuS/ULH4RAX5IyQWnyng88UKrUDpK746nUECKT5YTnfIUM1PrAYvQ6dr+Y/R5jMMjq8VODwYBBRxJmnOo4Iymr3G+ijhmgJKcBmNKKPaplzzpYIYrXivSMH+NJugRBlVLI+GcGc0VFgZApkpBuVTO3tx+IAZUTw+IXwf5bzjBeHFj1edfWC6injFM1RwDMGPY52eWMLdFqxSw5J8xKMA2CeItaeD0dqT7+lFKQoMdD9xFGp4Cuj2ENxorbAN5exFJlg1rCSwX5jVZblunZLltTJLQGNpYxm44eOYPcsf8DqYNhxApAca6brQQZ2Tn5SF4flaA9sXM0PhRG0UtrVzGylbdiiOhWxGPFSCabbYlHIa68JylXnsVzcDoYRoEcdSOVtkGSRJs+rUr4ssonZ8aF+tjJVqWZ6j287W0gD6u5YteTzaSm/N5IYvY6Asa9Mv4hMetK9Mib0/DfjPD+OVx466Qmu3UGh7yiDe6FnadcMElIgj2zNZonmgjcWSuum8RzcbH6/yIUF8sQxt2q1B/hOx41scK+1K/v/vdvlvvD7cr7Jv+8PhehOe/++vvvrqem3m5z8=);lineShape=1;" vertex="1" parent="1">
                    <mxGeometry x="186.96364186485255" y="659.2900348634907" width="42.667908552872944" height="28.54663459312968" as="geometry"/>
                </mxCell>
                <mxCell id="63" value="" style="shape=stencil(lVdJchsxDHyNrigS4Iaz4/zDVZZjVRTLJTvb7wNGoTLgSO3SbTRiD7ZGA9zI3dvzw+t2w+Ht/Xj4uv25e3x/3sinDfPu5Xl73L3b00buN3L3dDhuvxwP318eT79fH/rJ/vTt8KN/4dcJp0ocO4rD79ObREH/vvh8Or/fvSzPN5LgzsdG2gCgUFIHkERcACBT9BaSUMsAwJSaA2QhAS61RkkcoDDFCABMZQIoJeBSFQrVAWoiBRZKoDgBKjVQh5Sp+aBroyjXAcKkxQMKZeCSEaF4ZrRANQALYc5SMws4hhnQqAFqWJbYc6lVEhC0eSw+rU1g4VqiNAEYkq97HG8BGFtVVi4l2EDiK21OZmTBXFrV4R8dLwOUdJVWGINSnbKkVLBqTPTWSAlwyURgKpzlrQG22veKp7cKVcAlCzGxBySKCCBDIxYWFKS16ipoIQZBW0OGOGdJAb3r2YEzIAx5vgZgn6WuhaBw3cIEKFRQ0HlMgzMgUwD07lla9QMsnGnr5BIP/l6r9CwCTBWNrLhSPqs9AuShQosWRWLc+yHNWcoIoCMnixZlkNYYAgU/Rq1HAwqijZ5fkAmpcZ/sUwcxnLtd+lYNkZEK3AooZRVDG8W/PIJkZt8icZfHoo6knE0YgxlUoswjxRIXAKCOEBcqgLaTdaEj7Gkbor5svWdBnS2ACVAqVPtky4zOAAUR2742zfUaYP9YncV3qL2paCHjWbxtlygIYBZ8h2amjISvjRAXa2vCuwl7C7YYBwyoHvDB6m3S2jwA7/ZmIPoQZKzi186r7zYeE+/aGs2+EyIJUvo0+mScxwtoX3N0Oo800maf5Ok8an3TwzJ/H55frdzYHxsjN8VrOlJvyWefOl4pcL10RWnMh5vvkh+et4f/F9en3X5/uvcu/58vuvbqdEmW+z8=);lineShape=1;" vertex="1" parent="1">
                    <mxGeometry x="211.67528614782543" y="640.898696029328" width="20.528465408713387" height="48.30553025377532" as="geometry"/>
                </mxCell>
                <mxCell id="64" value="" style="shape=stencil(7VhJcttADHyNrqgBMOvZSf7hKsuxKo7lkp3t9wEjD80BqU58y8E3ipwW9gYwO716urt+3O8kPD2fjl/2Pw43z3c7/bATOTzc7U+HZ3va6cedXt0eT/vPp+O3h5vz78fr6eT09PX4ffqHn2dcLMRhQkn4dX6TKOifF5/O5+8PD8vzQpGH89xI+TJAI0kaAFEptcsAqRTqAMhKDUgwjUsbACUSRwAwlUYJVSlmAFCqo9G1URUIEB0ALVBFEpjaaENjLCEQlxEglIHRXKg6gHY3bAMSiXhABoFjIa0egIxulNifL0Cj3L8uzkdgciRN3kUvPtj26cZ5BokXelouYsbAQaH/2yIpGOgTKIylaVmH9LEyGfWvQgX8f/X+LNpL71JG5DGrM5PgummjhNgoAI3UUnI0WVuvpO0QRypxBAgJyIkcKY9BsDQswKk1+Mo0CSWBrF6lkdlQgVtb9RJihUZzWGVGqv3NtojkSzMXbHXxoS4ZRq6YAqMRxqkKVDJSr67arBoA42leMV7tnt4GWPU6CY0i4tTSPy8ADeW3NcOyAgAJEwmzByAvsVWQeqMZqMTc038GZMpIpdD7/QyIPTKXAHFF22hk4DWvMgzcxDOOyFovkW1AWzFfg0xmraGOka5GhsCGiSTUAxpiMhtBqlcJNTe1ggzeSwFEWudUW7SrAnIpBspOQqQEACYhu6Ekw2w1G8TVgyU8CJzOo+CiHhAJWBxC9ICKZz3XdBfseSmZZKVTAqG2dPV9vcIJl9fDXoGDgJXcS5udAQkOrLweNbQT+iWVkvMrw6bFccWVxgvIrW8FJOkNZ25BtXex7Y4SephmgMD8th4Y3TwzrxLbTY4pjoGzvstApQ2AjRPI6Ojp2xauAFSKqa86/yhBqx+xssAp3dpoHpPP1ivIle/bUq+4923p9fz/ti1Jl77Ylipqnz6rbVtCdFT8TGITL5zcbIpyFyUCZ3RrVHksfba+g6pAfJ1F6FERXwQKuWi6VxlDgLnLUpRHfRjubrawppGJAuyzyj5FA4yAzWwq7jyaFGzcWZ1nPICx1z8C/1v83fzFcAdbL8O4h8fsOUvg5B8LhfG8wm3nzXeLfz1vD68XmbeH+/vzPejyu7/4tFfnS1P9+Bs=);lineShape=1;" vertex="1" parent="1">
                    <mxGeometry x="259.431043506328" y="640.9750391551315" width="15.197680134188934" height="41.24359303837489" as="geometry"/>
                </mxCell>
                <mxCell id="65" value="" style="shape=stencil(lVfZbttADPwavRLc5V58TtP/CBCnNurageP0+PtSEORqKXmSvsnSjnkNh9xBHt72T6+7IfLb9XL+vvt1eL7uB/kyxHg47XeXw9WeBnkc5OHlfNl9u5zfT8/T79en8eT49OP8c/yH3xNOAnEZUZH/TG8qU5refJ0Ax8NpAUiyAiSqch9QAjXpAEWopPuAGiiEDpAyxQAsKMXeQlQSAEhKrbcgmRi4ZFkquQNkoZrvA2Kl1mfJnGTgUizE3KdVKFQAiNS0BxTKoA6hUas9oFGNAJBI+qCrUgYAy2r0BhrIaqaafAQVUC9STj5FSe+fZ8qrGkhD510JSqIGisykjthMAvwRir3/uVAC/1+o9BU20qHzYeVQDlQB6UKmzB6QGACU1IUQ5yRvl0zmit4A1mmI1kZiF3Sjgiw0rxYlkn4A6PugVEhrc6m6xglzd28D0iwmN0CGrWlMis13TkC9nKk5gFJClQ4k7AERWKjErpcrFcAMY6ZzKM3s3XZoZsFi7DRQBPb+lPJBLyfX+wFqEc+d9cnz1ZdYKinSd/bqa3qc0MjJXn0bCSCdNaKrMM/NfW9oOrG4yd/m+Zap9BUupKAAulKvUS+RtvBKf6XBqax1XjwW4oJMKK8mCBZIaxI39y0NaDsq9rnnqWa47JjguqAXedgmRvKJVYWtZr2mzqeEx4LO4nMD2OgCoh1WCqkBbmy2WmhPptbmTG8DxO9TVgi0dRog9S61CAsxWuiDHrcdZCH5WWjrS0FBlznrC41kZMFWRreABTzaVqt2xSJgk8qpkslCBVkyEeKwAoAY/vt+8QmAPfy7zrwcjsfpNrT87q8/9mq6OsnjXw==);lineShape=1;" vertex="1" parent="1">
                    <mxGeometry x="271.515662219" y="668.4555922587654" width="17.865846314471966" height="17.965978230591695" as="geometry"/>
                </mxCell>
                <mxCell id="66" value="" style="shape=stencil(lVbJUsMwDP2aXDW25PXM8h/MUGiG0jKlbH+PQkiplCI3N9fVi7U86amjq9f13cuqQ/d62O+eVh/9/WHd0XWH2G/Xq31/4FNHNx1dPez2q8f97m17P/5+uRssh9Pz7n34wueI886BcwMM3dd4lcDFn4vbEbDptyeAGsFlYY8E3gJ4CFUAqNoAgoICECpgNV3ySYbggIoBSFCkS9lBCAaggvMSwDdkArJ0iaOq1gt5yskREKEYMZQKSbrEn/i9OQvIGapMay1Q0/+AREDqBY7KqEPIQJJKJ+w6iyAPsegnohG1z5CLDiJmI2qgpLPkDHsmq9NlQIOsDiLpOltcDVCCtPdAhr2niQUTgAufjQC4fbOMoBQzpcFPLDgCssmLWMAtAuQZkRoulQSelgQ9nwD1WMj/+jPIKdao20AzOTIaxKgISTHDZl5BQEU9m9qpQJj1p5XWyC5JLjX7M2lEYwQganVoDBl/nNQXjjGcNZA9Jx2gsrcH8XL7qqTEVgYWS6UktvTMBkZD27h1ZD4b4skck/401DlAlbRuyP/C9YLbVspgmPruPKUhS2+4i9H4Omq9wUnYz5PNQ1KKZheXe1jSn4tlJZO5VZS91Y8xTc9fZp+yzo/tT56NFDteHvyBFuSzBp0fu17DBFxCh8Xb7AUAPvwtzw/9ZjPu3qf/62Wbr8ZFnW6+AQ==);lineShape=1;" vertex="1" parent="1">
                    <mxGeometry x="258.7974235143545" y="671.6318972409927" width="4.104410269811093" height="33.666715286428946" as="geometry"/>
                </mxCell>
                <mxCell id="67" value="" style="shape=stencil(lVbLctswDPwaXTEk+AB4TtP/yEyc2lPXzjhOH39fqBqoAk0j7U2WuAaxWCwwpYe3/dPrbsLwdr2cv+5+HJ6v+yl9mhAPp/3ucrjK05Qep/Twcr7svlzO76fn5ffr03xyfvp2/j7/w88FxxlymFEYfi1vMELkP28+L4Dj4bQBlAax9YBa7wMSQWALqMDNAbT+SjkCBudKCKEaQMlAToSaAYsBUIRc3KTRXqkF4HwfkNcUFRBDgOAkkQpkSxMFQKcQQkpKBlBZiRsDCNgmUclNQljE2EeoPk18kwM52pgLgRaQoCUHUIG6CH4OkiLaQrCohRxAAbIscVXFjwEIkSygATkRCukFVjEhZHQAQTlZAQnYiZClqWMPaA4gsfb85koUHQD2+paGQCcHFNu4odWTBlLfclI4cuQtgM42iN2mlitVWwcS3jyWktZ1YxvRs76mHbxpIM/6coFq+2FuUU9LIr4bE0CngYpUuuvpBs0pnMi7WXMldOUtLRo7c61qbfdaNNkIHFybkQi5A2Rgz2YSlGwB7M4sYal1DeQPuTHAE1+F0DlfVnseAmIEtpWWmMUp3Dpu9Hyq0JwA3E+HWFwliWegJRWVg3u212yAoF4+vk/qdeQPUKZ+Cwg6vobnW+hHSdSSjM9nCN3iA8np5SYrgJVEVsLG51n9cO1Mlfn4vAxbyw+7/G8WkDXh+FGEbv5Hf4w0UkWugAroAQoEK+rIupqNAfFmr2q+ilgvsFbtA9n970L8DwB5+Lt/vxyOx2V9337v93V5tez66fE3);lineShape=1;" vertex="1" parent="1">
                    <mxGeometry x="297.0269160897733" y="661.7256871195709" width="14.25626165077622" height="21.898041189407962" as="geometry"/>
                </mxCell>
                <mxCell id="68" value="" style="shape=stencil(lVfLbhsxDPyavRIiqec5Tf8jQJzaqBsHjvv6+9LdbrKi1lPktlE4EiXODOlJ7173Dy+7ScLr5Xz6uvt5eLzsJ/00iRye97vz4WJfk95Pevd0Ou++nE/fnx/nv18erpHXr2+nH9cdfs24VqiWK0rC73lFqNS/C5/n+OPheRXPIVAIPYCJAaJFSv0J2qik24DaSFMHSLysbAPiksACyEqJbwNKI+YOUBLFAgBCVTpATZRBSrmS9K/UbItwGzC8qhUmC4qvLj5TabfjI2X28QHsz0wh9oBECg7gRtFlFKkBXkilqh7wb2UToJU0DidEcOdMTYY7gEsnpdw8oAEipUJN/bPmDABt4EWhCJ7VTtBePa3iOwhll1KjAKga36i/AmRAVc0L9VeABgonhUKvz5WLbJOpUBlyQvIxRwk+XgE1lAr7V82gDIGiY5JVHsqZm48PgBdKYeCRgPg6lCBRQradKWYPCODCYv42iK0CGmkiGeUMPDXGAZCIkXZ4Q52oaCkPDpMXk7qlTh7KLEj/HwWwLCa66gsRAIxJTs7WeSLQv+SFaKvehgzDtNN6rVn3VFA4teban2CVEWwY4wSAuqc5fesNw2YMAZVW8dSwbovilaI7AJbNbuDqzMsbbHM7eLkFaqg7Z6+FQAk3KpfPm+FsjyPB+535L7ivjS/J54/8umzkz2hi08Xd3uMjsjtrm9G/J2oHSrWPZ7j/dXjyUzCj/T84Nf8/3j7eR/Snw/E4T/jr//uR3pbmnwN6/wc=);lineShape=1;" vertex="1" parent="1">
                    <mxGeometry x="320.93625055578354" y="624.8062754214127" width="5.257509814450475" height="60.15295468906277" as="geometry"/>
                </mxCell>
                <mxCell id="69" value="" style="shape=stencil(lVbRchsxCPyae2UkISH0nKb/kZk4taeunXHcNvn7cnO9i9HZW/ftLLOChQU08MPb9ul1M6Twdj4dv29+757P24G/DCntDtvNaXe2r4EfB354OZ42307Hn4fn6ffr02g5fv04/hpveJ9wMRCHEZXCx3QSKEwHXyf7/e5wYc9KrM6eSctt+8IUxdkXasBelEp09pWy3rZvTM3bW0AcAUCoFk8gUM0AoKTJAXKkhDw0aj6llgRhCNDqAGJBgiJYSJV9khoFkFUjLZ6DtrmOt9L6Nycz4POK64BA2ZOOAStJZRbC4qJRBDEp95VrmRLIq0aKnoQWknYbUFsv7popAw9VSbrKRRIgprFO3kNerrjOIVDp5CqkAgCpT+vYQUAbVofgtZEiJG3SyT6tsUFAS6S59yCAQyuk2nNQUDhriOQbgjFpk5r4sZSt9iCkCzUvpU4QYS66mGqhiLraQu6aVCihyZSpehJ2ImgyRSpdVxtrVGql0HpAA2NALSTfEDY30Di+DgAexLLkSVtTozlTTGteTGNP/deKsymA5vd6h9pcQEur9hulVmJQ6DLfttjb1gPtwL2QbKsiXcReRzbFCiAcSFYLLoJWWLVOtvjB0FvZc55fBffFYxlDGlrxjQIfJat8Lgv7vnLZEkFbp1fDsrbuVBves/+2t4/P5+HLbr+fXpeX//fPSTuanqL8+Ac=);lineShape=1;" vertex="1" parent="1">
                    <mxGeometry x="315.60117937515156" y="655.2629718655294" width="19.707582914000245" height="5.212073490467303" as="geometry"/>
                </mxCell>
                <mxCell id="70" value="" style="shape=stencil(rVbLbhsxDPyavRISqec5Tf8jQJzaqGsHjvv6+9JdaGPS6wkK9CavORSHHFKc5OFt+/S6mTi8nU/Hr5ufu+fzdpJPE/PusN2cdmc9TfI4ycPL8bT5cjp+PzzPv1+fLpaX07fjj4uHXzOuRQrxguLwe/6Sqea/Hz7P9vvd4cq+B0rV2HOh0ACgUg8GkGRcuQqIIVCwiJwoA0Rv1C2HUkaU64BEwZKojXK/D2hCrRtA6yPIVUDp1NkAeqYCbpBC1QKu8rB+BbVmb0jUQOWExFLoTDWBOnhhKOUO7G+q1gr0r0Iq1l5g0ZgkWXv1AISXKVl7rTEU6o19ocwgP0JdLCBTLwDQKLG/ATJmn6KqzQQoKOcSfY4EaIIr5eyLIIA0Lzm8qnJGIVWKrmydGpA1q4pd5zAVAYBIYptZG6GCtEYNyaa1FzyRNAD2AAaARmyVoc0vQBnJS68LZUA5UnEEwtDinVaLrmiVGrZ3NdMBDEdFdq0ch9Tv8GU7irQ1Kxq/FFynFchXC5aiBwQEUH/ZAyKSdaToKNQhw/8DSG0MkwXQx8Rffw+SH5B6AyJdk79BXWQwLepNllKlikLqVG0dJEIOefG3vII8eukeIFjSUcX7AcANYTi0LxFZ+wxf2dwp2mdQoFRL9ANV3zn06svoxIUwBRC/bkJOFYEYyE5LJuzs0RZSl3Cv/CMNZYrRx4/817GYveeHwWjRJik+/w2Mrn/dfz+218P7sv2y2+/nXf36f7+c66d5sZfHPw==);lineShape=1;" vertex="1" parent="1">
                    <mxGeometry x="292.9145008995347" y="679.1783537075801" width="17.58917212681964" height="24.361064014812033" as="geometry"/>
                </mxCell>
                <mxCell id="71" value="" style="shape=stencil(lVfZbhsxDPwavxIiKYnSc5r+R4A4tVE3Dhz3+vvS2K5jcbMT5G0PjcRjOKQ2eve6e3jZbiS9nk/H79vf+8fzbqNfNiL75932tD/700bvN3r3dDxtv52OP58fp/eXh8vKy9OP46/LDn8mXKVeLyBJf6cPiWT68HVaftg/3yz339yG9Zl6WV+vRtyH9Zyo8zogd2IdAZmarAMqU7cR0EmBC5bJ8gBwHwowqVXS8QTp1NI6oFfKMgDUv+g6gFOilMawFlJ8xP+wz4DiiQCA1qMTVUlB5qxTH8NkCXrtv3n0wYwMZS5RHk1qmdgAN4zqyI3OVBH7OqWRrb1RBj44XW00qXvcOgDUyG8HdOC0OtdkAUA+yLzfDSCDKClTseh0yQCQqI6J60aCAaFGe4GZ1oVq9DxvsQawABCcaaa2oEZGJinJWEA9zXFbS1xrESCIS5XK4gRUcdoWbHWtRORzbkqMUgLSl5eJU8og0w7Ii0wnJN9pUQ8ehgZ9iCcYdrrN3LypBwYmeR5sAUBCpu5i6Chv+rxGpuhEp4qc8Ka1EKaGAGnBPpcqZJKTU2MiPirqoAKZKiCTA6KSKTEqOZ65dlOjhqP0OUAWktBRFE4b3jRlDKsVCPCmGVpQ7ZDfJrGNVqEG8tA48rvU2cj3ARaLurh6Ap1xVeFRmDxuFZkklHkAeJ9ELcg4CpNeM/N+Hpz9YcQy2KhzpTTqjOisnmvyHVqQj4kMTuAaE8cKw6rzEHklKwyqkIaChirGMQWNFOzuLX2Mp83j38ryoNoV3gIW02qBsU+zLFzZALXOdWXks5ABY7xext0Zpkki+b3Hokkkjgm4h+c40nqowO4+NmlcDjj5ycvah8v94e1e+LQ/HKZr5e3/eI/0T9MdVO//AQ==);lineShape=1;" vertex="1" parent="1">
                    <mxGeometry x="351.36937821200854" y="654.4822763707054" width="35.72614962927458" height="37.677848220870196" as="geometry"/>
                </mxCell>
                <mxCell id="72" value="" style="shape=stencil(lZbZbhsxDEW/Zl4JUqS25zT9jwBxaqNuHDju9veVOxjbojw3yNsshxJFXlKc9OF9+/S2mQK/n46H75vfu+fTdtIvUwi71+3muDu1p0kfJ314ORw3346Hn6/P8/vb05k8P/04/Dqv8Ge2q5VKPFsF/jt/CVTt/4evM7/fvd7ykULPC1NN6wbFSKXfwMh43SC336UzUIM7JKWQOgNLlOO6QRSy/gyxwB00UaidQXNS67pBYOLepVKXuN0PK4l1fC1UQBoKBe35Ch1Ky/lu+Az4SJY9XwGvVGXgMwgQmQ3+gPMKnX+588o6z6TFxxOt3/LFnueCeHHxz1DUvOx+4ZtEQXyEcvF8ALwO+olUdZ03SsXzBfifBr01HughU9LBf7B+y87AJxD/SjbEPwB/KiXzPKr4pq6+QzQ9JBDPQtHFsy6KXYmPDXpG523ZHNZHbdr8+sIXia8U5FjAqAEJxep5AwJlSuIDig7QvM2eV1hgPAgigQQwmfM/wYbF/lL6gBdZ3L3cAHnpefcTkP09mcNSFPdTHEj7EMUMe2I04l7UFklQ0UfiPkiqpEjVRrG/Zq66WhsOvOyogDIowz0pVIBDjU/s+IDaCvu6Z9gWa8uyOd6APzVQFMcLGgt0uaWvPKri1pUlfIZPZIM/QHOtqKL3B117rWgHPqP4D31X8NjU5KKOR2PNTRe8jrsKyvjT4/GHfHu4zuIvu/1+HuVv//vZvX2a5359/Ac=);lineShape=1;" vertex="1" parent="1">
                    <mxGeometry x="335.8422827127738" y="631.7398145480779" width="27.578043328293177" height="63.32337898986034" as="geometry"/>
                </mxCell>
                <mxCell id="73" value="" style="shape=stencil(lVfZbttADPwavxJLLvd6TtP/CBCnNurGgeP0+PtSNVb1UtYYeZNljpac4bWb+PC+e3rbbiS8n0/H79tf++fzbhO/bET2r7vtaX+2p0183MSHl+Np++10/Hh9vvx+e5osp6cfx5/TF35fcK1S1gkl4c/lTabE/158vdgf9q9X9tXsy2DPShLXAYWphAEgiSSvA1KjPAKiUAUnaKbSBoAyhbIOiEqBR8B85k2AMLWRpFSogRNYSGVkNZEqYIlSHuyNNgUycCYZSSqFFHgkSjzqVgNxAyRJj3AGmAwAoLE7MAMStQSEjp5VS64Cgs6ReAy6WXIBVrOSjrQ2Ewa4NKlUR0CkBDIj555pM0CpVAhwOjR7A8rBXCouhoJdUqouBqtZFHSkHEdAIwVKZyFWD2hIh0CpLAAoNdqC1kZJAKBQ5UXQIIaUqcmCVuRS7pxcCScgWw3gg1bYxywGT6slH6A1VeK0SG+QfEZrWhYQSj5rpNEDYAGJb94GSCiXdHGC9ApZqwdelCijrmFdKHodItBhKlGndOozbPUEp0OBA8gA4pKvktxhyQXdSO7okD2gohI1pcegOQQKIOopmZI/ArXvzwO4k3JVcgVErdZnFlIHwKvY3HdCMMw+CT39r2aWAF6ZvRBVqYGSs6E4xmxzuoAQZpHmRUD7F2471JeveTMpMDFKH2ezfYBrABc/TWzOC1quLAlGgCosN5U+CuYFMeNMtXIbO/G0b6FyK37R4NaH6u2tOHpWbYCBcdXmVarbB2rg+9biHEehbza37ZVydfaM/El+Sce1P9WheHtAqPXDhT+Kvl/74LviB9m3fgeZBevDd83e+S8UEZ+tyzOnHK76sChL7cN91aExRRNOoEaRnX1F9p+85t23t4f/d8qX/eFwuZJe/+/voPbqcn+Nj38B);lineShape=1;" vertex="1" parent="1">
                    <mxGeometry x="64.1974802096031" y="730.6922072069508" width="39.52974693552218" height="44.955784292451426" as="geometry"/>
                </mxCell>
                <mxCell id="77" value="" style="shape=stencil(7VnLbhsxDPwaXwm9SZ3T9j8CJGmMpkmRpq+/72wNOSuuPUYOPbU3e62RRHKGj/UuX329v/5yu0vh68vz06fbH/ubl/tdfrdLaf94f/u8f8GnXX6/y1d3T8+3H5+fvj3eHL5/uV5WLp8+P31fdvh5wKUoJS+oFH4dnhSJ6c+DD4f1D/vH9fogNq8HIHcKKGE+oIrqeUDsYnECVBMLFBBtAmgUrQSA/eoEsCTZKKA7QJfKATVNgB4lM6NNUpsBSRI7QaW5E7LETADtBMDYlarkMgOKlEYA2G8DMAaAiXOke5XAAhek1g2AsHUTN9xIyY1UavTrM6FeG7+ufNrI/lWK2z+JkSiXEaHV+hDZep3FCdoFIs44hLUWAtkf/p/31ySR+CdImPdvgTIiiM7+KdAZWY/T5/jmPiJ+xv9xZmiOXMcwYJYltshMZTruewQcbTptgfoTkAoCkWVRUfMAJTGuTbrL2NAdcVLLXjWLLojKGnJRn92KVMAAJs3FOdCqgxOiq1KNCg025BlQk3QSadSYPEsNT2ohcWgSZxva0dHn4uCqTgNZWTJKXv3aRpU4ne3Uy9MylXNXKXNNWOoa4VLvklxCirxyhk0KQIosJGXgCGcEcnwhdIUR3SVVpUkb+/msbbQjgY195jcuyURtINPs15UfTiOKNPVHNMImiz50MIIBFLUweTex3K3qO0M4LhGr9bjfuiUhkQOgb9hEARDMnL/BV0YmlDNzBDdqtEFhc6ghKta49Q2/7QL7su9hADCmuTYkuTI6EM29svno1kD7YVDNHL8T5fcCcFwqoyqdu5Iri7BKScLvbdMP22hHz7nVtQK4JOtWrW+u1GmFsOrz96sbzpHPC6jTbhX0bu4EpVVuAbS3AFr1uXIRECta6Ded4sBfQu+MJDBfCYmHtawp++SqfBgDwGW+hn6G2JDr6PGOpb1RLpUymuZVG8qyRjEvUfQzjfXpaOLmrIGOKbGuL27GbuiBdcbmpzc0cZmQD1N0UH8lNthjPvTNehhF7Nx82M27VVkzncewthofKgMUf4KiTLL2pA0yH+kdabPxf7AfgH9wsCc+PTnYE/H87cG+bvqePhqbM/bazFIUr8RKlbcXQmskpeomBRut/+r5cOGlofph7MJbyeZlzN96Nu/+TJernyWTRHIZG1c9Tgu85RSd1RhGMTmtrehH4SCJhApqd4WAjy5xw+UL6zf56sJ9zCeTC/Z2zx3uzuWl1luihe3cfTgZ3vyG/eJ6fHh9nX+3f3g4/Buw/t2//sejw18H+f1v);lineShape=1;" vertex="1" parent="1">
                    <mxGeometry x="112.0489340263631" y="727.6467664448817" width="24.888175214772147" height="44.753418170318916" as="geometry"/>
                </mxCell>
                <mxCell id="78" value="" style="shape=stencil(rZbRbtswDEW/xq+EJJIS9dx1/1Gg6RIsS4o029q/nzxDS8Q4dxiwNye+xxLJS0oTP7xtn143Uwpv59Px6+bn7vm8nfjTlNLusN2cduf2NPHjxA8vx9Pmy+n4/fC8/H59mpXz07fjj/kL7wsnRlVmKoWP5Z9CUn7/8XnR73eHK70qVR70rGT1PpCF5ndXgApFuw+USrmMO8qU5T5QIxUdAFOKCoBMFkagEEcAVNJxS1apBgiUEaiJcgZA24CNgBKjFVLPyR+gkIIsWaaQR6DCLBUjTh6oCAiU2AMGvJRvY2huBHXQTKw+aOQlTRTiCAgZiEEDBVeHRBEUrgFlTGuzhqAYmKrzUoZZ0kpcR6DFkEBaM8mYVmPY00VuVkiw0u21RL8CMwBaT6uPQcGWZverz5KCFWbnsK9DAHWIoZV6nALzIEFzxkic+4QENbXcAK3UALC2gms5owKmgAWqzq5t8qDhmnqDdeAqD+tu0pW5gWqtRskBhex/AtzsN0Y9nxmg1ikSjyu0SaIgTfHmSOE2XcEpd+ul7t978vHzBaY0krojtMezKhc/uBn2mvWDpsvb0ATyyJRGC4Xeeut664686BPQt+1nr0cG5eAP59D9tK7PFMd4I/y+tPCyyw86EUR6j1/Sn4F1pPj9KwnS/+ON7e/69nC5Hr7s9vvldnn93l8n21/LVZQffwE=);lineShape=1;" vertex="1" parent="1">
                    <mxGeometry x="146.22406250947597" y="746.6999939172899" width="8.271213116843228" height="24.21958175738143" as="geometry"/>
                </mxCell>
                <mxCell id="79" value="" style="shape=stencil(lVfZctswDPwav2JIgOdzmv5HZuLUnrp2xnGvvy9UDRUDsrfNm0xzJRy7C3IjD2+7p9fthsPb5Xz6uv25f77sNvJpw7w/7rbn/UWfNvK4kYeX03n75Xz6fnyef78+TTunp2+nH9Mbfs24VCiECcXh97wSG9X4d+XzDDjsj1cAydSqAQhTSAAQKHUDSI2iAABTEQMoQlzuAxJTzQZQE9VwH5AbZQsomSL4ggYgyQAyk3QIyK5KZXzzdkiFoq0SZ0ogh1Kpdt+HDspaCjUHqJQZABIF24cUqVSQQx/vWwAJhpSFmgMU6qjTGrHtw7QCyqoRy+oLBbFV6S0+B0FsjeN9CyBQAyFxp9hW1ABl5UWQCyBSx4pjx6VKCQGEqs2BBZZVViFxoIIalwZzFpvRMiCJRgrRAwICVArZhwQFxEPyV0lHUCX1CMdWLlhx1RuZNk4aBCTXabVnJNHsuaTkE8ClElcAoY40rUnbkFRAiEupU7F9SNhm0spbFRDRBFqbQCZG9GZqttM6MdAXVKLVSbQNdt2TqDMBlVQC8+HDAE262zmtckB904CtBwQon6am5Yo6qnxzf0/ETp86kIAYYgj+pKFeW4AautbIpjAlBZjUqo+pYSuueeh3KWqgiriaVzYWcF210Y7d/R+mQc1Sr/bh5jf3B8p2v5oImlerLqgWkHP30dXF9CIlsF9t2olNmwb26+u6TSDD+igvXUDKRNAyHX3dxiNQymrRycbDY+HegcEJjaFw1EmyjweZl55g3KhN2E71uOLOtuMIdHt/GXR571cG9Z/c3O6PEapSAY7RUcaIuAcQW6FY8Pn/o3eY/wDow/uV6WV/OMw3ruv//RVLl+brmTz+AQ==);lineShape=1;" vertex="1" parent="1">
                    <mxGeometry x="163.31962275626745" y="748.7743298914461" width="15.6055096484014" height="21.29054163842882" as="geometry"/>
                </mxCell>
                <mxCell id="80" value="" style="shape=stencil(lVfbclsxCPwavzISIAk9p+l/ZCZO7akbZxz39vfFdY9joXgzfTs+Zg8ClgWt5O518/CyXnF6PR72X9c/t4/HzUo+rZi3z5v1YXv0p5Xcr+TuaX9Yfznsvz8/nn+/PJwsT0/f9j9OX/h1xhUjyScUp9/nN0Kp/33x+Wy/2z5f2ddOabTnRAwATanZ6CBTEwDoZGkAqBCn2wBTSm0AlEKJAaBS4wFQK3XkoZHUAdAaaQWAQjIG7T4VeGhGTQdAF8ogS37iMtahNzIAKClmKSd/Bc4kTDIieqcKXGQlC0H4KZEH0jLaJ9J82/5y3ktWnRl2217j91uB5PYA/v19IUZbCvkugG2p6oV6nVRBFTTW2euiqBssto93gyCuMuUxBmUqBXZDLhGA+s2LxDIBQFq7Lu14BTBQZ6dyniSgIUCnPFJVnYuo0mniklZiIBruIjScNioNBhFKrbYo2600WahcX4r/PiATj5U7kQnrGKcIqAggMa8OEBC0i3exKQZQuVYntTcMKIsuXtVB0ZGmlvNKZ+yhTmRqaMS58gZ+CxRKS9RDlpgamic6ZclbDgRtNnGJMb15ioEhNVza8yxMiK1GNce0osJ5x1moQ6H2ASDE0OAQ9SPpONedfGgA9UI9cMn1Hknf/wKcrXGiVNhxZZ5ZCj28ifVlKmaoGuItP6bVGB7JF7zQQNbhQuai0sIyk6EIeIhlVD7fuCrwUC/L0dUGV5CHFsnnbxA16rTn+hZqoKd9U7Awd3XR85uVHtkqAhc4bXEL5UwdxCBKPRxp2ehu2YdCCxmQAClxB2XqoD9lWk2YEjpPiwuoT0hQAk3L5xZ7H4fg+ydJ5GDPIJ+uVxq/DwvmlzGJ9qhv8jLIrs6DtEKW8N7s0VXMGdxqyKcAaSlOuFivjOwtKgu+fH58WfWHt5vu03a3O1+Ur/+PN2N/db5Vy/0f);lineShape=1;" vertex="1" parent="1">
                    <mxGeometry x="169.14127925399282" y="754.6439017005987" width="15.045991728263147" height="45.2104898735522" as="geometry"/>
                </mxCell>
                <mxCell id="81" value="" style="shape=stencil(lVfLbhsxDPyavRISKepxTtP/CBCnNurGgeO+/r5cLGSvuM4UuW0UjqUhZyhqkof3/dPbbuLwfjmfvu9+H54v+0m+TMyH1/3ufLjY1ySPkzy8nM67b+fTz9fn5e+3pzly/vpx+jX/wp8FFxtJm1Ec/i4rSrosfF3ij4fXVTwHCjrEc6QWACBSqgNAKikDgPQDdEBq1AoAKNU0ALIdSQGgksgAKEw5fQyQSCEOgBpJAGkJPqtFiEFak1Ac05qZGJDOhcKY1hyogR2q9N+7HimQAg61UXQcSmd1F9AKlTxmqZAKADTSsXC2ZwWkYzD1hQHRmBKonG0RHSBRywCQqY1nMloRnKkJFQeoVIH6Zo4OYCsRALSLcwVAHEycWj0AialUCs2TrqByRX3lmlKpAJC8mCxvgnYwgOMQqIC0zkdyHq3QozPp0XI1EwMtzWkd20ZNVJDl1NfBABFbrmwAjBwklMe02p4R1GGWd/SkkVpNOa7P2CEDEN89j171+GEbGAthHo3I1KWn/QrIlFBnSv2KWnlUUBeIG7k2yME6XRgNscrDfQRT3W4BSJTW+9CaBPJc9h3f0qSg0XwakK+GWek1AYCq52A+V9CZUqLs7hS77dG4YVlif0Og6SEyFecIoQAvId+/jQOstC90xhtsLKoBMlA/zUiDswb7NjavALtt/JxhXw3du9fxDd7pm2wKnEp4M37Cm018cSMx6HbqwwM2TB8zb+EBJN6Uw83HA64mTfXxjFqvXUfs4lFvj7l775adAoQQqx+DGY9rtev2JgV0OX32LfL/ePu4PXxeDsfj8m5a/98/lGxpeWTJ4z8=);lineShape=1;" vertex="1" parent="1">
                    <mxGeometry x="187.6095641976856" y="733.2412305817186" width="20.857910211183313" height="34.00094642486932" as="geometry"/>
                </mxCell>
                <mxCell id="82" value="" style="shape=stencil(lVbLctswDPwaXTEgQYLkOU3/IzNxak1dO+M4ffx9wapUREhCxjeZxhKPXQAc6OHt+PR6GDy+3a6X74df4/PtONCXwfvxfDxcx5t8DfQ40MPL5Xr4dr28n5+n369P1bJ+/bj8rDf8nnCUIGJFefwznQTw5d/B18n+NJ4X9tFBps7eR/C0D2APTjkgQAtQIIUOEAli3AekBKkPiQNEI4ccIfYeUgBO+4CSIfQ5FN9ONgEOEVAhAqDlogDnHhAhGy5KgqAAcuIMAAH3WUtaySAiZ12mGqQF8JqIRR22qWPIXrvIRhLJtRwXADS45tT+XpSpGCHxrP8ZwEAGc0xAKgdRE9seFHMeiiHwmgP3ACmDN6tEygOCtwAMKXWAXNpc2KOaiwaQQVwVE2rAf8XvytXpHKLVQSL/VZWyIY2q5j5p8WklvdXV9vCrg0Mlwab65D5UzGUgywMCRd0QZNQ1B0irDirB0IZMCb4LQOBWTU1Wj+aVXOXE8MCxbZBlWQ313Q2I2MbQvCLmFtkEhACuH5bMbXxuAoibOOc1F03iCNtUmRepUGmMDZfB9QAvLWJoCSH0UuImlR1z1Qx2/BJ+f3toU23T3AOp4NvDY5swwL78zqyNTKNeD8K3EbvzbfF92FuvJLfaOvYelGjVKELzjSTMrO7/RDvK3gEa+4BIS8FBsewjlD5+anxs29/56vzcXj4+nrgv4+k0vZCX/+snsRxNz2l6/As=);lineShape=1;" vertex="1" parent="1">
                    <mxGeometry x="212.6873704075315" y="732.3432485348221" width="10.364263458542801" height="35.596118428852606" as="geometry"/>
                </mxCell>
                <mxCell id="83" value="" style="shape=stencil(lVZJbiMxDHxNXwltlKhzkvlHgDjjRhw7cDzb74c9DWlMJV1Gbr2QlFisKmmKd+/7x7fdFNz75Xx62f2any77Kd5PIczH/e48X/Rpig9TvHs+nXffz6cfx6f1/e1xiVyeXk8/lwq/17xCHJak4P6sH1Kgmv99+bbGH+bjVXyoFMQkRCZx2wlaL2WToGuK307gTNGu4CtVkFASRW8SKmWwI9FybOIdRdByDVTyGB9BPFOymEYKFcQXynY/QhXV1xEkC1CmXGBCrXYETFlggtgd6ZAd2pKQDDSKVBLs2dmZsaMKhlYTZbsCMxUGCZ7E0ogLJKrSwlmUlImIqJKJ7Rw4QKJKInYWpUwJMEMi+UFsQgHMQZSqFqWFSzdWsNxWsSFYtYdUbIJvAt9EyTatVLoxhoHd7cPmnOOgTlRficRDAxChmqna+EwFxUv73etHyIpFbLbhEKB/edc77LTwzdI2HcNOOanakAGoJdkmkmA98+jyrERBjhGatq7kmVAPX00ohaI1sczEoGnuttsStEQATac0UmORE9iSjilYWEVhRSiNY1isHIhNx2YxuuLK5z03pvUFpJ2+n3fQzKHHM3mghtD+9nhHGTTsx2NB/QYx243ELgId9YNyim/nylZ9q82coA5cG08nqRo22L/iYymnRwgDfGI7t7suCzQXZbzFUzmbkWi+eB28Ha8P/++ez/PhsF5dr/+Pd1X9tN5z48Nf);lineShape=1;" vertex="1" parent="1">
                    <mxGeometry x="209.79124032489585" y="747.6722016639881" width="22.968527432859016" height="6.876829433379642" as="geometry"/>
                </mxCell>
                <mxCell id="84" value="" style="shape=stencil(lVjZUtxADPyafVXNSHM+k+Q/qGIJWyEstZDr7yNnM8aS7aZ4W+xpRkdLavkgNy8Pt8/HA4eX18v52/HX6e714SCfDsynp4fj5fSqvw7y+SA39+fL8evl/OPp7vr38+10cvr1/fxz+g+/r7hGKU8gDn+uD4RC/ffgy/X44+lpcTxGSmLOx05FACBRb/aCSiUCQKXEBpA6pbYP4EBsbyhMAkxSF8X6UDMJMIkLxWIALVNHNzRqFtCZGvJBX2d/g4A8KCA4HzrlDgCRYrAAoVpgWKPNQ2mYGo2KdToXasAkzfT/13OmC6UAALOLCy4l5IMCrNPC8AbpVK3TUkYqNwFvFs8+RGqAS5lHEOcbGkXApdyIbaYlUs77gKJ5tTdwIuZ9QK2DajMgUAZsbeJrWgPNwCQlc3VdBtO71VHyc1iZIuBS6ySWfNo1GghrjyTJsrVigFCygJJh5+vqtPVBKy6BKHXtpJbeGuiACigECpZ9LVFFNq2vKCQg1b1RdYA6WtU2QMnkAH0YuRemkj2gIoDyO3kAaq6aateNFZBBQXSdKNEC5t62zb5GvfooCaKrFvVqoiD2KcCPoEQRVZBa7ExiysiH7mu06cjAYXVztwVokibOjyClY4LUWA85CCirMRqwD22wf+k0SJwWkNNLU1iR031FjYRN6iu2KjWQ052iMwmTT0u0u66B6a1h5VWJwgJKq7C+U6I6lqsHwCYQ/KCeavCdASE+SqiR6f9zSndqlbjiPghIY37M9C54yGkjW0kyBtTQcnFtpgQ4gtQA1zVUryApUGcyz3M3w5lVVf9Yk1T/IDlTgycf44GiPrj5MMlAdAMPxTablKCs1MFfndiQIZa3NVwdaZrDihWWvnZdI8tI5bZw1UZmazrH8WRPGrtWqVI2AuEqYcjUhbyPyKToxUnR9gzqQQHV5kEzg5qAinkn+mobud8DdLeXhbEh7JmUbcX1Bp1m1bU2rAuRtreYFRsm7Z4VkEm3oLSSZAzIFIu/QUsko51dfPvWnQICwop9Yai67ZIbUmTRBCpwQfzipxtKA0HVkDtyk4CQrmS0jFa+c5ztcYb9Jfg2H4fS2g4mcXXHAzjOo92O48poVMZeUoWhHrb3WwrJHUdkzn65DaPbbzdSn6YwlrKd453dcbRq16EV3wKJZt9KYTPcmj/44ezd4/rj7Rvd/enx8fqJb/nef9PTR9fvgfL5Lw==);lineShape=1;" vertex="1" parent="1">
                    <mxGeometry x="240.83321172760543" y="725.8307904549538" width="40.71187877971816" height="46.89832381096901" as="geometry"/>
                </mxCell>
                <mxCell id="85" value="" style="shape=stencil(lVjZbtwwDPyafSUkUudzmv5HgGyaRdNssEl6/H1puNqYtD1B3/bwSDxmqJEPcvP6ePdyPHB4fbucvx9/ne7fHg/y5cB8en48Xk5v+ukgtwe5eThfjt8u5/fn+/n7y9305PTpx/nntMLvGVeo1QnE4c/8Q+4U51++zs8/nZ4Xz8dINRlAylQFADKJ3YEbpQgAQiHaHRoFFJLuIAZQKsW+D+BIORtATVTKPkAC1WZ36MQgaenUgy1rosz7gFSJ2QB0iRL2AVmoOUAmBjkULWu3IYWxxDZA17M5cB9k2QRUoV4MQMmSQA4tUrSdbtRBRK1Ssjlr6wNodE8ULFlFSDIA6A6WSpmpgarGECjYKjVFoJg6VVslTesfu7YBjaoVUGdinES09O6ZWgIAraIDNIogaw2gRg/oKOlAUjyAUavbIPMihw5yaIVK9FUSEFLLQ1+LPsAdVmOmqaRAlRTQLKA22DgNIKzmUgBjRqvUHCCMPbf7EP0O5ZPGiZecAgoC6GngADoLEb3rWO+aA48l9gQUrajrtfd7gO7GTISjcgLYHJRdEeXQx99X8gWsOJW8U1waKt8tq62SLpHREBDKlt6qODiXdBiLBxTE1uar1Mug4x69owtJIJcmAblR2SlhgFhqNC0rOoH+G5CGs1joAUqUKdsc1AkkAKgr8kmF9J5mhLNwebRy+2Av3sLpEsjN5ELZCkgVlxGAqThHlqAeJofXfUgoh8T+oJ46A6bGhztakg9oWp2xWE0vzvptL1B9I3QuZHRADEFen4+Djts5eLJWdY3g+UDJplwClM/KyqQE19cpauPXjJB4kj+io0oBDAx1d+5yghvA7MXJsP5cPa85Q0usGbgJpr4djTwN2BklvV5lxCENwLJOXXUAIWkJu7MAVze3d71qazEji8tD6wvawbZFfxrWij3DmA1LXkPdOOdW8fG8arMOlwwmahnn3sKRoFtDGTZwYXmQC1ud5XpfRdeYlY/Uacrg+eIvbiXCu2TxnPvkHcDn7wz0w8cLh4fT09P8vmL5v39BoT/NLzfk9i8=);lineShape=1;" vertex="1" parent="1">
                    <mxGeometry x="288.8636849425716" y="746.0979592217154" width="41.37800231023436" height="20.008912385924067" as="geometry"/>
                </mxCell>
                <mxCell id="86" value="" style="shape=stencil(lVfLjtswDPwaXwmJelHn7fY/FthsEzRNFtn09fela0iJGHuK3hxHI2qG5FCewtPH/uV9N7H7uF7OX3c/D6/X/RQ+TcyH0353OVz1aQrPU3h6O192Xy7n76fX5ff7y7xyfvp2/jHv8GvB+UxeZhS738ubTDX8ffF5WX88nO7Ws6dch/VcqPI2IDiSMgBiIE7bAP075xGQyPltQGJKaQCEQly3ATlR8SOHSqVsA0RJuzFCogSOVB25EaCH9CBCDW2/noYIj1QruVFWPSRnCKhj4iRRAHlQgIQRUCkj0mJVmlkJAGSKY+L0jUSs0shhlgGRdhRGDt711KynutjMaYgEQkigakgUEhTB21TXSALKtdTWYB3gyYMeVUAYO0hwUytARhMQpgKaWjnEUdciTYYtlWRUqWSch2yPVCJ5oJKmmkdZS6ACImgxxYcIGQGylVU5wB4VSnGUFRff3HJj8d2qaxVwV80dIcQ4hDfFxBRAqrWaeWRdEwnqudhcogOk9fk6QItplGnWAdiAUnQPNoCOJJHqw5ESqm8mjpZ0RRNCjSZaWRHpdQDgoMXJpuXUDUGmc7FTLsWm2/ocTdbJMsMpF7urdECBsoZHgFBBt43cWrgDEjR8L62YO2k1dBDBs62l2J1nPQ/2vhQiXO+sy/hIEWj00NDew/uVa3ejXkdwqrtWM7frniCDsRM6womuU8NcDttdbr2AWsV3rtC7cmPWlmsPoRFi7Rqbr9fdit0eCK+Vw8meHriWD9aEuDXo+vpk91djRfv/503+3+v14fbZ8HY4Hpevjvv/7WeGvlo+UcLzHw==);lineShape=1;" vertex="1" parent="1">
                    <mxGeometry x="333.6530644511215" y="746.4570213590982" width="27.185496410806753" height="21.361095841273855" as="geometry"/>
                </mxCell>
                <mxCell id="87" value="" style="shape=stencil(7VnLbhw3EPyavTZINpuPs+P8hwHLkRBFMmQ5j79PTQTODps7Jfga+CbNTg3Zr+pq8qIfvt1/+np3SeHb68vz73d/PXx+vb/oL5eUHp7u714eXvHXRT9e9MOX55e7316evz99fvv/66ftze2vP57/3L7w9xuuSyobKIV/3h4kqfrfg1/fXn98eDq8HqOYTu/jSWoEYGJ1XiBJNgLoEsIE0CA9ngO2HccZ0KV3AihS5i3lJrmcA7CBPBttWRrbUpNo8wpdKttSE80zIErggOaMRmRIHBDoqj4OSiKN79U5DjFTG9SkzCsgkun8/ZyktOn9IkqiYMGnapVKEskQ5j4bkCSQqJUoOm8oNkkMkEXnMCeTQEwoJuqilsSIT7FCnm1GbpdAADBxtiGbNBIFQ5DmzIOfKzEaqb8WAys3U8luBeOBS5IcAJnBbAjSmgcUEgdUo3MrAGxLIIhgHsDKLRdfbgDESgA2EuHgJcsEkH35IA6V1VuWMNMeIlOZl/CzWyHxFVSaMzryOGRJDhCksDgg1RxPdtqv8HN3TLy74XYu2eDdIxNz1jBXomAN4qXSRgXvAKQGsaHumbMDjPJSy+N7hxUY1/c4mPpAM42kd8eWXBx2arsN6MMnh1yKBBBD8DoAVMV0QEcPnQGljmy5DVDfsKpRQCvSZ0BTWtS1SZ+tbn2w523AojR6HoLrLPvynN9wA0smuN1ck7t6+pQ3ZgSCyYoUydbcngpXDsl3diSkEb9CkKnzq41PnKkfR5YIDSN8AFynrmmk16kgmyNXUCMc4IwuQSKTfHXpo3tkbgOyZya0Mdbak0p3wrgOSXQKWNRGf2dLjl0z7RAQVNURjYqxwFXPAtCZleQSIh2TB2QSOAjjsKyQeXpX8zawlqLg7+YBnbQU9AM/b9iw6gxgzq2F22CjgRxSg3UIzX5QRCuOhFxVb2iByGhmabybDmQV1/1EY5FOKMiltmpjPlm6wG02EDZGPbS+eImVaB6kcowDcetWojORbZFmBZQ9tyKXKM3YUnE6rDrzkq+HxAf2JrZWHEu+4Ce5DcAqDh1oZQ1WD3qjptlAgHpwMwqYrzKa+WFAWwYCpTIRGs+PHHy4zMGrvmJ0fAXAjeA10tSA1nZEhj4d2QSBAWPeEiRZYXMWfOLESZDEBoLgp9GeaKQx6DklsKkZNrNn79bW6GBWF9EHxZ+IW+FEN9TgCaNKONGdR0H+FLICpLHjVsgflkutjmOJg/wxYnRbzk4QmczEd72hNYzQPcaFulAlG5usDSlyHF9/np38PDv5f5ydlKUDNdoUtx0vTZGNu7Z4SflYZvu0sAN22XgGcMy3DQjcBje8Jjxhydf9CrFSgYWm6OohFjr4afVj2fXK4wyQZ27VvU2eAdxJyHboxS4H2jIDdXp0osuxWom07V7DtAMSvxFJ/qTPKtWtsXtViQJSYkO0cT9x8NI7l2XJHdzxLlpH99gDnSnxpcFBeybtdyo33w/L8EATbzmB03HfcfZ1l6b06Cr4Y9BIS3/xZeRTiddUgXYEHSrz+npkLcqf3fAjNPO5HGh1laFrrq8n4pnqG3KgjaON+9qrIxM79PQTauSHqj92n/zu6/jjenX95eHx8e3m+/i7v+rGo7drcv34Lw==);lineShape=1;" vertex="1" parent="1">
                    <mxGeometry x="366.7443681902555" y="723.751202829518" width="40.47841310432073" height="54.56470739021968" as="geometry"/>
                </mxCell>
                <mxCell id="88" value="" style="shape=stencil(rVfLbhsxDPwaXwmRkijpnKb/ESBObdS1A8fp4+/L7VZbi/YOWqC3jaIxRXI4I23iw9vu6XW7kfB2OZ8+b7/tny+7TfywEdkfd9vz/mJfm/i4iQ8vp/P20/n0fnye/359mnZOX19OX6df+D7jpFJLE0rCj3klForx18rHGXDYH68AMVDMAyAHkgwAmYIMAE0kZR2QIjEPgKIUdB2gQjICtFIMAKBUxOfQBEZQVyWmnNYBmSmEASC2gqqkFNVHCBUAIrU4AhJMWhq1OgKUKoggqddkAVTKgBrcSNoIaDAHjqTVR0iAGpVUfQoFBEhUiq8RAyYJJZex8YJBAlTHWZDS23i/aZ7ZtoJaYLwfCyqBKupAoDQWiCvkKWdfIS5wmi3ldANAPbYcWvZHQtNsvHezZkn/LsOqwLguSI+5Nmt1HB07ZARVmljm+tAgL4xmfjhjn421pJMTGO1cWStrGQXGRgdVyRrHt8MJNM+okdlHqEBgjHziki6UQB9yr+GyPxODE0UKbr9ATeWbNtswIG5Tcl3OPeJ/2T8Rf5Q7UwuQrxlhGRMI3VXuq0XwcsHdq+/uL6n3c/FNquD8Vbv8L7+fSUGAlrr4XOkjYnWz24hjdaMKDIFD8EabIyxSK551ajwEg9OE2HUN06gaL8Yy1QpV224raRSwpqTgSHa7UKepAVPDBKmMSUx1ACrMqSvikoStAJ3PfvgtK2S17LmU8Y3qps+mRgqGJxA769cusSvncV2OCXqCeFszMcJil9z5zcpBj+0GO57fLKcg62dvCAZAPmuz6wxBlulbky+NPgK6yE8CnHzOjAQ4kTqFN1/ElwunYOazjFyw9hNfew6K8K/vo78A2Mef59jL/nCYX3PX//fPN1uan37x8Sc=);lineShape=1;" vertex="1" parent="1">
                    <mxGeometry x="414.43059738838497" y="744.7523447045737" width="16.096538522822478" height="25.696844280504784" as="geometry"/>
                </mxCell>
                <mxCell id="89" value="" style="shape=stencil(lVbZbhsxDPyafSUk6qKec/xHgDj1oo4dOE6Pvy8XC6VL1p4ib7LMWYnD4YhTunvfP73tJg7vl/Pp++7n/HzZT+l+Yp6P+915vuhqSg9Tuns5nXffzqeP4/P6++1piVxWr6cfyxd+rTjO1OOC4vB73cmU1o3HNf4wHzfxJVJjE58StXQb0BrFZACVqYETulAQA5BKJQNAp2pPkE6RIaA3A+iROshBAcEBMtUGAI2CZWnZqQCQKdgclAZBSQfK7oROAnJYSKwegJIWJmkegGht3UtDk84dSiMXCyjEQBqtEncLYCroSpWSzUGl0QK8UnUALVwBLAUvDcmwcJIoBQv43LkO0AtkC2CqAKDSEPEAQR2XKWd/pY4AjZKttBRqqB86sa20CDEoXAzKq6VJ0+pATHpEsUbW1ZgEJiFOrnWkdR1QKLoThBKyjejFtFgVLrVYmjY8XEfkYSubI1DPqV5r90nArlY77p6mgAz/q4BSqVu9NqYM1JQCNUtTVgUDlpiSJSkWKI3glRETVdDTWiMrjBiHUd2KdxYwrPZGeLP8VGh6PB7wzYsOvp6HXka4WiowvDYc+jNXiuDrMXi7C9DtlOnSXTxqgFj9KxWIQWnjP29/HPPJdTJ5vBcbepDUvjhP/T9eF3+Ht5f5cFhnv+3/ftjTrXVQTA9/AA==);lineShape=1;" vertex="1" parent="1">
                    <mxGeometry x="426.5586855394283" y="749.86234784576" width="12.831840235714099" height="17.542225991878695" as="geometry"/>
                </mxCell>
                <mxCell id="90" value="" style="shape=stencil(lVfZbttADPwavxK7y734nKb/ESBObdS1A8fp8feloKxjUtYUfVMUjpfHcHa04Ye33dPrdpPC2+V8+r79tX++7Db8ZZPS/rjbnvcXfdrw44YfXk7n7bfz6f34PP/9+jRFTk8/Tj+nX/g94xr1OoFS+DO/CJTnF1/n8MP+eBMehZqPD2E9PgnFbOIj5bYenzP1YuMDxbgOKJpvsIBGoQMAUxQDSIUaAiTfIi4UQI+WKWlVCQBypdQNQM8UAYBIzAZQAwmogeuY0gA0poJOSMS26B7H5O8XXUiiBWRqvA5occz1BsBpHaAJiKVGExIEyIMIV0CnAIru1ZOv6RvQ1q4JNA/IoGhR8iUPaGAfpCyKbjAl6Z7e2qWKUhIqtkva6I823JeAEDyZpskBEdAj2OaknW5gcqI1Om70sYRrbcpWZiRQAbIhiYodhGBh0lG7hVBABSn1xVIrAMlGZ6o2JT0TdUnnVG3RvUEl69oTt9QFqr0CsuMGFiZNKVth0p/4SHKt6OTo2jGgDPrfLEQC5FPmyGLlMqhBqRHEAwre0VB9SlAFGhX2RaO26gIlRw3lEkpJxnVwBTCktwKa22lVHlRD9xunjUZzuAuIiEuLfRDc1rbg0tQ3wKWaRomfZgPbmaIr1/wRDI7IunLBF5HAUqthaq4IhqOeDJUbdYXSp/4oL+gq4ISot6a9g6rAG0I9oZNv7XQGwpTU9dkulQyvRVZ7YlNSS4TaOlk2O7jUx2TuA/QStHOYrC+aQxju5QpQeiFh8lSKDKlUqXYfj0rO4y64yaeBqbF3SzFCBYiLfK5jvxsfFqsDFUltv3Os0OEuPAk2Yjosm3we9nWlVqe/DMmTRmVXsg0vsDIpd39ESITimRmgTfjPL7x/huvD58fky/5wmL9Fb//vPz711fzhyo9/AQ==);lineShape=1;" vertex="1" parent="1">
                    <mxGeometry x="440.4690855951426" y="734.7476757810557" width="27.534006753799556" height="35.38176940637784" as="geometry"/>
                </mxCell>
                <mxCell id="91" value="" style="shape=stencil(lVfLctswDPwaXTEgQRLkOU3/IzNxak/dOOO4r78vVI1sE7S3zU2WsSAIYBfQJA/v26e3zRT5/XQ8fN383D2ftpN8mmLcvW43x93JniZ5nOTh5XDcfDkevr8+L7/fnmbL+enb4cfs4deCC8zEPMMi/15eCXH5++LzAtjvXq8ALRO3zj5EivU+oArl2gGiEsf7ABXS3EdUKYGQikWcOkAOFMJ9gP3dSgcwFy3fByT2IWmhAAASKPWAWii1+4BYKMcO0CwkBPBXaIUYlCFTcf4ziYA6U3L2iRT4DzIElCghQCXVAaDgxkKSh5BAEazP4nDniHLabiUVJMnKLOwBFZxgAMeepqQ4JH/pSgWEZI0Ue7o1cwHoZp0UBkBlUDhdO/msABcRuY2IpOyPaICglSR4+5wAP9fWvEpSQ0laO/PKPgD/gYorgrUW6jwS57+QAAVLlF1XZMrAvhIPTGgofguoeUAGF7Aah5Gc4ARLUR1O+EefOtGeJwvQC2NCGJKkIEkz16KvQgFtOrNZfJmRaAsPbK6wzh8GDMPZpkIEGllI+6RWyxEgf8hU+xxphgHZCaVvDBudESVVV8k9D2cmAVdIlvOe/OZCwQm5eIm0IAWoSymrmJwFzLoXNHcxQXQnrIS9vcGw57MtHGjjMQkuzh5dQJPXL4azWS2l7OxRCSqvxLrYo32qprVnLvZoHlRdV5sre7RzDtsUQxbM4hadfQH1NZo7LbL9Ee1GlaqvlyL75u3PA+I2Kz+6lP8HwB4u3wAvu/1++YS4/t9/M9ir5XtDHv8A);lineShape=1;" vertex="1" parent="1">
                    <mxGeometry x="487.49501596193863" y="709.5756116695425" width="10.766980375589666" height="57.554741286451076" as="geometry"/>
                </mxCell>
                <mxCell id="92" value="" style="shape=stencil(rVfbbtswDP0avxK6URKfu+4/CjRdgmVJkaa7/P3oeXYsKj7FgL05zqFMHvKQ1BAf3vZPr7shuLfr5fx19+PwfN0P8dMQwuG0310OV30a4uMQH17Ol92Xy/n99Dz9fn0akePTt/P38YSfkx1Xim60Cu7X9MaRyJ8Xnyf88XBa4Ysnnxq8T1TctkENlFqDwOQqMBByrUfRk/PbBsKUpTUolOK2gXfOfiIlqhl8Qkh8Y8AB0iSJIjcG2REnEHWkGluDTBnQNCYiNAYlkAdRc6FoDMqc+7sGKVIsjcGYSxB0EMotrbVQAZnzlUrrkgRyDFgiaVmVTK6AmMm3lSEVOpRsAJr4CM7vkqb4Cs4P1v9VKW4YOLYfEMQohc4hBoRqURZLkAAhOPJs8QH43wlNyiyMrfPbZqEJZhCv+p9bPFMBMlN+gsV74I/yb/zRbockQBItPgO8FlCw+AoKLhGL9f+vqrcEUC1eoGA4WP4Lxpv6KZRRE6Jo+KmUQL2ljh8hD/nx3uIx/6HXFzg/2Lb+Ad7PDXOFR9PSzWyv4wVTwFHIHZ/AH9Wj4VPzBfSieHO+1gP0Jxm9a739R3ymavj3xIBPr0O0NdCRlFDDLcStYurStO9XnLclrWM1g5bF3VDSwR1QzHWW1LIaFLgQ1a4rZg9dqmLbBOO2K9H2IfZQB9rWUlt4qcz7y32DTjkj0SiGRNJ+IfJcvPcXqNotpgIX09zVku4vDJoLR9tNGW9ocV5mlpiJET7MWlxCpgrErPhs8R5oYTy/rSNtf4DR0f+2ULXs0PCIc++/4dH2x8lOYweXG8Wb9dLBZUWVmarBI52pSEz3xcscL7K94dEw42V7XsWLzv/Hu9zHeH24XRxfDsfjdO9c/28vmvpquqTGx98=);lineShape=1;" vertex="1" parent="1">
                    <mxGeometry x="486.82533137769633" y="725.8932344225966" width="51.98041773162411" height="54.58918049068559" as="geometry"/>
                </mxCell>
                <mxCell id="136" value="" style="shape=stencil(rVfLbttADPwaXYldcp/nNP2PAHFqoa4dOE7b/H2oqttqKWmCAr3JMrkUh8Mhd5C7l+PD82Fg93K7Xr4efoyPt+Mgnwbm8Xw8XMebPg1yP8jd0+V6+HK9vJ4f59/PD5Pl9PTt8n064efs5yulOHmxe/v9hlz69eLzbH8azwv7yFRcb8/k8r5DTiR9AJZ2xKZDycTSOQhTCPsONZHvIwQmD3LwzpHrk9C0EvComVwfIjFVD5IolHznkJkEZK0wxd6hOIoMClEoGweNCWCSTKF2DjWSl30HdpS4d6jEBeCaKVbrkFEhgoV1UZqd0pEUG6KCEKn9u7BHKAXLJbV3FYBkyVoLCUqZgrFX0EARvG03ZXsC7SYk5vxIFQAaqQRrz+B8RcPgH6gAe1WH7KxDBrz2aZWBRkCI1hXrNIUISsaN9gsHlIOCmuqqCCiCsqjvzanKoAobZSvtzbaD8mjFayTDvjTaLBsBEU9BXEWoIGnvbR0+auZiu3+SC6AvgepKXpCmchOfBagJUY+isc9UgMirvfn+BBFat4JOLqhF1bAotqr/F/uJRCYBPDiDJ+krUFLDbFtdspXfXFoRt+VaGdDrUdaYaL3IlHpB0smcEOkchb4RojQe7k1m80lBYNmSssYsMALHoKJU+k+aZBkQT6Jlkk7SgiZz4+WfFGBjOnu8QB5pl/cAMZTT1fLFTWl2zK2swAHoKWdj7kHPa2Y9fRxcBKNd63QfQWugVTjXxufedpOCtUfbkLRBt7BHozLandHBYa8LXVmhgwTxHy8TH9vrw9+by9N4Os0Xn+X/9qajr+Zbkty/Aw==);lineShape=1;" vertex="1" parent="1">
                    <mxGeometry x="17.38450989112289" y="832.916749922055" width="17.604110502932297" height="75.57140505654145" as="geometry"/>
                </mxCell>
                <mxCell id="137" value="" style="shape=stencil(lVbLctswDPwaXXdIgODjnKb/kZk4taaunXGcPv6+VDVUBZpBpzeKwpLAYgFi4oe349PrYSL3drtevh5+zM+348SfJqL5fDxc51tdTfw48cPL5Xr4cr28n5/X79enxXJZfbt8X074ueKCg/MLityvdUdQyp+Nz6v9aT7v7KOHsLKnjEAfAxKjaEDwSPIxIAti0B7F5uMQUAqiKEA9wmcTkLIGFFA0AAmibygMb8Sw/C4aEBGCEXSCTxqQkYw8ZAfvNKCgGC4lQuIekJ2RaUEOvUtssBSrS90N0ogeAmpeiTSAwIaWJEC0WHN1yQhapKc1B5BBq+SW1w3gIFbQNdM6hrSJZQwoEO1SkrYzTlxE1rSm0DIzlka4c0kQ2FCrQyx9DGQVUJVG7FnyBq1Vaq7LA7cjhgDval/S+q4lUqwukCGdXD2Koe8S+iBqWGaNlibOXUF4g9dMkA5QO48RQ7qT646HsZoyHPc+FSN1tX/3UUezHUtqBbPrfZbAa5FmHXW2o/5vQBCQ1kbtVcEoIYo9S1wQjBtqr9QeebuoHZIm1QdTrHfi9gRn1I9D0A+W/V5Re/42fsweFtqLv73QTYZjWTe9bBMAyKgCzyBt71pDG9tnkO/snaFo4vYq7eyNklnmFdfZRyNXzHCdGMzWxRFFFzG39jpm/24Ci6b//57Y6uLvuPcyn07rtLj/34+HdWsdLfnxNw==);lineShape=1;" vertex="1" parent="1">
                    <mxGeometry x="44.65137158530956" y="839.4811734015045" width="12.50924661422141" height="22.610024679736853" as="geometry"/>
                </mxCell>
                <mxCell id="138" value="" style="shape=stencil(lVbZctswDPwavWIIgudzmv5HZuLUmrp2xnGvvy9UlaoIS5vJmyzvijgWSwzy8HZ8ej0M3r3drpevh5/j8+04yKfB+/F8PFzHmz4N8jjIw8vlevhyvXw/P8+/X58m5PT07fJj+sKvmVcrpTixvPs9v8lU8t8Xn2f8aTyv8UwldXgfKPM+oQjF3BEkk5R9QmYbUXRUZJ8QK1XXEVIgB3IIeoLvCMURgxw4kQ8doRZyDhCEap+01plB0szk2RL+FXq7rHcR1XbkdpFIksWHuo/3VKrNOKAEyJUen8mFfbwWvG9B1Qg9xPc9rqor1LJ2+oJnyiB+3yS24B0JEh35vj6lkqAxIO7rXwoVkK8KgsUSKkpY2t+riCJQhIqaq005g5Zxpmxq5FsVtgmlDfpC0MEEolaCM2MToRtpDsW0OVNEZQ1UjI5K+8Q2wRPfTXIGo1/J90Vi56BXJKuk6QDQaLH2OGWAakTJ3ZUINGHR/aoHSHhLdqsmIzN1lO5UhCZNG2Dyde9M8gfxajx9AlmtBUhCrw/pJy1mqsgrxGooBErgBL2/Qu8WojWK+4Ts7Whq2yO6ZKslhNaWbftyVnXSdL6N900DS0BwCEqwKlIDR3aqU9PfH9iu1TxTMHgUT72zX8WD70+3kcUH4EM6U5lNvgwaPM1sMPVktKYVexsIBaC4yXP6/ga4fqxMbVm6SFBAH90z38Xrw/+l9mU8neadeP2/XYL11bxAy+Mf);lineShape=1;" vertex="1" parent="1">
                    <mxGeometry x="37.637564959001566" y="887.4628486338322" width="21.672765292794036" height="35.56275536545612" as="geometry"/>
                </mxCell>
            </root>
        </mxGraphModel>
    </diagram>
</mxfile>